<svg width="100" height="100" xmlns="http://www.w3.org/2000/svg">
 <g>
  <title>Layer 1</title>
  <g id="svg_8">
   <g id="svg_9">
    <g id="svg_1">
     <path fill="#e86565" id="svg_2" d="m90.18839,70.38482c-0.23499,0.14136 -0.4519,0.32429 -0.69479,0.44684c-1.627,0.81773 -3.36773,1.2358 -5.17763,1.2358c-1.62419,0 -3.19555,-0.3767 -4.71652,-0.9837l-3.48691,20.59325c-0.21223,1.25348 0.13967,2.53739 0.95909,3.50909c0.82073,0.97093 2.02797,1.53 3.29818,1.53h9.72796c1.28996,0 2.51353,-0.57731 3.33334,-1.5723c0.82092,-0.99837 1.1529,-2.3092 0.90475,-3.57527l-4.14748,-21.1837z"/>
     <path fill="#e86565" id="svg_3" d="m84.31597,65.90968c0.81603,0 1.6221,-0.18025 2.40657,-0.57728c7.47027,-3.77022 10.23344,-25.58082 7.39037,-31.2243c-1.05891,-2.10203 -3.04363,-3.91532 -5.49118,-5.18515c-1.14671,1.03767 -2.39229,2.04395 -3.67283,3.06245c-2.50301,1.99338 -5.34137,4.25144 -7.69135,6.97513c-2.35075,2.73045 -4.16553,5.86923 -5.7681,8.64141c-0.76453,1.32475 -1.53809,2.6581 -2.36577,3.91328c3.50496,5.94459 9.60426,14.39446 15.19228,14.39446z"/>
     <path fill="#e86565" id="svg_4" d="m85.27807,15.94775c-3.11639,-2.68459 -7.74512,-4.13695 -12.65488,-4.13695c-1.98079,0 -4.00237,0.26637 -5.99293,0.75288c-0.49646,2.67124 -1.72211,5.39513 -3.01525,8.2068c-1.33656,2.90755 -2.8519,6.19989 -3.72076,9.69357c-0.86868,3.49688 -1.07339,7.11988 -1.25348,10.31598c-0.17031,3.0192 -0.40304,7.0646 -1.86555,10.33082c0.90439,0.58859 1.71893,0.86868 2.46823,0.86868c4.43792,0 6.73018,-9.3595 13.35098,-17.03865c8.17202,-9.47964 19.84092,-12.8171 12.68363,-18.99313z"/>
     <path fill="#e86565" id="svg_5" d="m56.67841,6.30869c-1.14369,-0.28574 -2.35393,-0.4239 -3.60177,-0.4239c-4.81163,0 -10.1686,2.06763 -14.46065,5.69064c1.00008,3.01995 1.06099,6.46815 1.09595,8.94576c0.0421,2.89533 0.08872,6.17866 0.7367,9.34768c0.64779,3.17204 1.89262,6.20873 2.99139,8.89069c1.64673,4.01327 3.17786,7.84438 2.37272,11.55893c0.75909,0.18404 1.43582,0.28141 2.02477,0.28141c6.43262,0 3.32074,-10.5203 6.08109,-21.62112c3.02014,-12.14695 11.93208,-20.38495 2.75978,-22.67009z"/>
     <path fill="#e86565" id="svg_6" d="m29.46532,11.16431c-0.4974,0 -1.05684,0.05997 -1.68528,0.1893c-4.44901,0.90891 -8.81173,4.43604 -11.62679,9.19504c4.6011,1.43882 6.4501,6.49088 7.83535,10.36053c0.81622,2.28513 1.74392,4.87384 3.09233,7.17083c1.35124,2.29998 3.16152,4.36856 4.75806,6.19349c2.01463,2.30167 4.04598,4.66652 4.93251,7.40093c7.20617,-2.04696 -0.14174,-9.73361 -2.35581,-20.57294c-2.11802,-10.35509 1.23862,-19.94037 -4.95036,-19.93718l0,0l0,0z"/>
     <path fill="#e86565" id="svg_7" d="m13.47411,26.27577c-0.69892,0 -1.51533,0.26186 -2.4921,0.83615c-6.33072,3.72209 -9.86801,14.94604 -4.94171,23.33142c3.41999,5.82129 10.01972,8.74348 15.85567,8.74348c2.57049,0 4.99248,-0.56826 6.9289,-1.70481c6.33354,-3.72228 -2.12441,-7.89869 -7.0524,-16.28109c-4.16402,-7.09262 -4.47213,-14.92515 -8.29835,-14.92515l0,0l0,0z"/>
    </g>
   </g>
  </g>
 </g>
</svg>