<svg width="100" height="100" xmlns="http://www.w3.org/2000/svg">
 <g>
  <title>Layer 1</title>
  <g id="svg_1">
   <g id="svg_26" transform="rotate(-42.5041618347168 63.24482727050781,45.56270599365233) translate(-15,-7) scale(1.100000023841858) ">
    <path id="svg_27" fill="#000000" d="m60.9311,16.3946l-1.2345,1.5046c-0.2635,0.3226 -6.3619,7.9619 -3.8369,20.5096h-1.5227v-15.7592c0,-1.3628 -1.106,-2.4691 -2.4691,-2.4691c-1.3628,0 -2.469,1.1061 -2.469,2.4691v15.7592h-2.8231v-13.1024c0,-1.3628 -1.106,-2.4691 -2.4691,-2.4691s-2.469,1.1061 -2.469,2.4691v13.1024h-3.3299v-7.7035c0,-1.3629 -1.1061,-2.4691 -2.4692,-2.4691s-2.469,1.1061 -2.469,2.4691v7.7035h-0.0774c-0.4741,-1.0502 -1.1079,-2.0428 -1.916,-2.9267l-9.6343,-10.5248c-4.026,-4.3981 -5.9321,-3.325 -4.444,2.4511c1.4684,5.6969 2.9547,12.1279 2.9547,14.8094c0,2.7176 -1.5258,9.4171 -3.0138,15.2983c-1.4616,5.7826 0.6108,6.9923 4.8032,2.7522l9.0334,-9.1405c0.9976,-1.009 1.7563,-2.176 2.2929,-3.4236v6.6665c0,1.3628 1.1061,2.4691 2.4692,2.4691s2.469,-1.1061 2.469,-2.4691v-7.7299h3.33v13.1305c0,1.3629 1.1059,2.4691 2.4691,2.4691s2.4689,-1.106 2.4689,-2.4691v-13.1305h2.8231v16.5295c0,1.3628 1.1061,2.4691 2.4692,2.4691s2.4691,-1.10609 2.4691,-2.4691v-16.5311h3.9997c0.2074,0.5053 0.4034,0.968 0.5778,1.3744c0.9908,2.3028 0.9908,2.3028 -0.2995,4.2731c-4.4327,6.7834 -1.4289,13.8383 1.0468,16.9361l1.2346,1.5473h1.9801c4.8442,0 10.724,-0.0032 16.8555,-0.8181v-4.13641v-4.1381v-36.5161v-4.1595v-4.1596c-4.5266,-0.4576 -8.6778,-0.4625 -11.914,-0.4625l-6.8858,0.0148l0,0l0,0l0,0l0,0l0,0l0,0l0,0l0,0z"/>
    <path id="svg_28" fill="#000000" d="m87.96388,18.21187v4.2286v4.2928v33.0327v4.28949v4.25681c10.59399,-2.90041 20.9146,-9.2277 27.06258,-23.0577l0.66502,-1.4946l-0.543,-1.5441c-5.33302,-15.1531 -16.42111,-21.413 -27.1846,-24.004l0,0l0,0l0,0l0,0l0,0zm15.85469,21.2652c0,2.6058 -2.1135,4.7192 -4.71919,4.7192c-2.6058,0 -4.7193,-2.1134 -4.7193,-4.7192c0,-2.6058 2.11349,-4.7193 4.7193,-4.7193c2.60569,0.0002 4.71919,2.1121 4.71919,4.7193z"/>
   </g>
  </g>
 </g>
</svg>