<svg width="100" height="100" xmlns="http://www.w3.org/2000/svg">
 <g>
  <title>Layer 1</title>
  <g id="svg_1">
   <g id="svg_2">
    <path d="m91.6992,23.5276c0.4088,-0.0681 0.8175,-0.1022 1.22649,-0.1022l0,0l0,0c0.4201,0 0.8401,0.0341 1.2376,0.1022l-42.7654,-18.46429c-1.3173,-0.56778 -2.839,-0.38609 -3.9859,0.48829l-42.44748,32.2955c0.26118,-0.0795 86.73468,-14.3195 86.73468,-14.3195l0,0l0,0l0,0z" id="svg_3" fill="#000000"/>
    <path d="m89.2349,67.5309c2.8843,0 5.5416,1.0447 7.6651,2.8162v-39.4156c0,-1.8964 -1.3059,-3.4407 -3.0207,-3.8609c-0.3065,-0.0795 -0.6246,-0.1135 -0.9425,-0.1135c-0.2157,0 -0.4315,0.0227 -0.6586,0.0567l-84.50882,13.888l-1.44217,0.2386c-1.91911,0.318 -3.32721,1.9758 -3.32721,3.9177v24.5169c1.60115,-1.29449 3.59975,-2.0554 5.75732,-2.0554c5.31448,0 9.61828,4.6218 9.61828,10.3337s-4.3038,10.3336 -9.61828,10.3336c-2.15757,0 -4.14482,-0.7608 -5.75732,-2.0555v7.2791c0,2.2258 1.81691,3.9745 3.96313,3.9745c0.21576,0 0.43151,-0.02271 0.65863,-0.0568l69.95094,-11.5032c-0.5451,-1.5105 -0.8403,-3.1456 -0.8403,-4.8604c-0.0114,-7.4152 5.5869,-13.4337 12.5025,-13.4337l0,0zm-39.7675,5.5189c-4.2811,0 -7.7446,-3.7248 -7.7446,-8.3238s3.4635,-8.3237 7.7446,-8.3237s7.7446,3.7247 7.7446,8.3237s-3.4635,8.3238 -7.7446,8.3238zm24.8462,-19.1229c-1.34,0 -2.6003,-0.3634 -3.702,-1.0107c-2.4074,-1.408 -4.0427,-4.1562 -4.0427,-7.313c0,-4.5991 3.4635,-8.3238 7.7446,-8.3238c2.9071,0 5.428,1.7147 6.7566,4.2584c0.6246,1.2037 0.988,2.5891 0.988,4.0653c0.0001,4.599 -3.46339,8.3237 -7.7445,8.3237l0,0.0001z" id="svg_4" fill="#000000"/>
   </g>
  </g>
 </g>
</svg>