<svg width="100" height="100" xmlns="http://www.w3.org/2000/svg">
 <g>
  <title>Layer 1</title>
  <g id="svg_1">
   <g id="svg_22">
    <path d="m8.08341,96.071l56.39519,2.637v-74.9106h-56.39519v72.2736l0,0l0,0l0,0zm2.30119,-49.0688l51.7098,0.2442l0.0282,10.053l-51.738,-0.505c0,0 0,-9.7922 0,-9.7922l0,0z" fill="#000000" id="svg_2"/>
    <path d="m65.54295,98.748l25.53796,-5.79841v-69.1522h-25.53796v74.95061l0,0l0,0zm1.55206,-51.74585l22.51578,-1.39741v9.00535l-22.51578,2.18436v-9.7923l0,0l0,0z" fill="#000000" id="svg_3"/>
    <polygon points="21.384382247924805,8.183347702026367 8.082000732421875,22.905532836914062 64.48003387451172,22.905532836914062 76.71600341796875,8.183347702026367 " fill="#000000" id="svg_4"/>
    <path d="m76.716,3.72248c0,-1.96397 -1.91553,-3.5698 -4.25585,-3.5698h-46.81898c-2.34033,0 -4.25679,1.60582 -4.25679,3.5698v3.56941h55.33209v-3.56941h-0.00047l0,0z" fill="#000000" id="svg_5"/>
    <polygon points="77.2816162109375,8.183347702026367 65.42940521240234,22.905532836914062 91.0820083618164,22.905532836914062 " fill="#000000" id="svg_6"/>
   </g>
  </g>
 </g>
</svg>