<svg width="100" height="100" xmlns="http://www.w3.org/2000/svg">
 <g>
  <title>Layer 1</title>
  <g id="svg_1">
   <g id="Layer_5_6_">
    <g id="svg_2">
     <path id="svg_3" d="m9.82739,70.53435c-6.98846,0 -6.98846,4.44499 -6.98846,6.75248c0,15.5771 15.47937,17.0071 34.57438,17.0071h25.49674c19.095,0 34.57437,-2.71829 34.57437,-17.0071c0,-2.30749 -0.66936,-6.75248 -6.92233,-6.75248h-80.7347l0,0z" fill="#000000"/>
     <g id="svg_4">
      <path id="svg_5" d="m99.32401,58.59869c0,2.55104 -1.9861,4.63814 -4.4137,4.63814h-89.49663c-2.4276,0 -4.41369,-2.0871 -4.41369,-4.63814v-3.47793c0,-2.55105 1.9861,-4.63815 4.41369,-4.63815h89.49663c2.4276,0 4.4137,2.0871 4.4137,4.63815l0,3.47793l0,0z" fill="#000000"/>
     </g>
     <path id="svg_6" d="m51.8761,3.57833h-3.4282c-19.0947,0 -45.60864,12.40167 -45.60864,32.46767c0,2.3075 0.66938,6.7521 6.922,6.7521h80.73534c6.9885,0 6.9885,-4.4446 6.9885,-6.7521c-0.0004,-20.066 -26.5143,-32.46767 -45.609,-32.46767l0,0zm-22.4305,25.74307c-1.8247,3.198 -4.9674,4.7417 -7.0196,3.4487c-2.0522,-1.2934 -2.2367,-4.9335 -0.412,-8.1314c1.8247,-3.1976 4.9673,-4.7417 7.0196,-3.4483c2.0519,1.293 2.2366,4.9335 0.412,8.131zm20.7164,4.7087c-2.2853,0 -4.1382,-3.1564 -4.1382,-7.0499s1.8529,-7.0498 4.1382,-7.0498s4.1382,3.1563 4.1382,7.0498s-1.8529,7.0499 -4.1382,7.0499zm27.736,-1.26c-2.0522,1.293 -5.1949,-0.2507 -7.0196,-3.4487c-1.8247,-3.1975 -1.64021,-6.838 0.41199,-8.131c2.0522,-1.2934 5.1949,0.2507 7.0196,3.4483c1.825,3.1979 1.6405,6.838 -0.41199,8.1314z" fill="#000000"/>
    </g>
   </g>
  </g>
 </g>
</svg>