<svg width="100" height="100" xmlns="http://www.w3.org/2000/svg">
 <g>
  <title>Layer 1</title>
  <g id="svg_22">
   <g id="svg_23">
    <path d="m38.7372,69.62209c0.17793,0.07831 0.38191,0.14417 0.60741,0.19623c11.92847,2.78079 17.85043,4.56922 20.7801,5.6797c1.73937,0.65948 3.93275,0.61967 5.30853,-0.63194l8.89294,-8.08628c1.37576,-1.25161 1.35275,-3.2778 0.28832,-4.80396c-3.5999,-5.16135 -4.37449,-12.33795 -4.49413,-16.50544c-0.00924,-0.29606 -0.05208,-0.54607 -0.11038,-0.77459c0.79912,-8.2995 -1.48635,-17.39041 -7.05244,-25.29875c-11.10463,-15.78255 -31.05354,-20.87634 -44.55571,-11.37598s-15.44384,29.99685 -4.33751,45.78128c6.30709,8.96203 15.46384,14.46547 24.67286,15.81973l0,0zm0.89421,-58.83249c14.51603,4.77169 20.17119,17.26757 23.3354,31.24223c1.09217,4.82528 -6.39899,6.46805 -7.49115,1.64578c-2.53699,-11.20445 -6.37143,-21.69885 -18.2033,-25.58859c-4.69338,-1.54295 -2.35131,-8.84692 2.35905,-7.29943l0,0z" fill="#c3a036" id="svg_24"/>
    <path d="m85.62744,71.01031c-1.83901,0.01527 -3.58613,0.53382 -5.10152,1.49389l-3.07534,-3.02628l-9.97587,10.14304l2.94948,2.90345c-1.10896,1.62125 -1.70712,3.54159 -1.69183,5.53703c0.04454,5.39288 4.46809,9.74433 9.86096,9.69981c4.53091,-0.0368 7.96194,-3.94353 9.00654,-8.18291c4.32072,-1.0414 7.92514,-4.23938 7.88685,-8.86843c-0.04284,-5.39268 -4.46638,-9.74415 -9.85926,-9.69962zm0.10888,14.50679l-2.88664,-0.69798l0.38192,3.20252c-0.02151,2.56453 -2.1198,4.66733 -4.6766,4.68733c-2.60756,0.02151 -4.74564,-2.08299 -4.76716,-4.68884c-0.01227,-1.402 0.6227,-2.73475 1.74089,-3.66124l2.15508,-1.78391l-3.06307,-3.0125l2.88966,-2.94023l2.96023,2.91269l1.76844,-1.92808c0.90498,-0.98631 2.12431,-1.5354 3.43121,-1.54616c2.60587,-0.02151 4.74565,2.083 4.76717,4.68885c0.02,2.60945 -2.08299,4.74603 -4.70112,4.76755l0,0z" fill="#c3a036" id="svg_25"/>
   </g>
  </g>
 </g>
</svg>