<svg width="100" height="100" xmlns="http://www.w3.org/2000/svg">
 <g>
  <title>Layer 1</title>
  <g id="svg_8">
   <g id="svg_9">
    <g id="svg_1">
     <path d="m90.1884,70.3848c-0.235,0.1414 -0.4519,0.3243 -0.6948,0.4469c-1.627,0.8177 -3.3677,1.23579 -5.1776,1.23579c-1.6242,0 -3.1956,-0.37669 -4.7166,-0.9837l-3.4869,20.5932c-0.2122,1.2535 0.13969,2.5374 0.9591,3.50909c0.8208,0.9709 2.028,1.53001 3.29819,1.53001h9.728c1.2899,0 2.5135,-0.5773 3.3333,-1.5723c0.8209,-0.9984 1.1529,-2.3092 0.9048,-3.5753l-4.1475,-21.18369l0,0z" id="svg_2" fill="#000000"/>
     <path d="m84.316,65.9097c0.816,0 1.6221,-0.1803 2.4065,-0.5773c7.4703,-3.7702 10.2335,-25.5808 7.3904,-31.2243c-1.0589,-2.102 -3.0436,-3.9153 -5.4912,-5.1851c-1.1467,1.0376 -2.3923,2.0439 -3.6728,3.0624c-2.503,1.9934 -5.3414,4.2514 -7.6913,6.9751c-2.3508,2.7305 -4.1656,5.8693 -5.7682,8.6414c-0.7645,1.3248 -1.538,2.6581 -2.3657,3.9133c3.5049,5.9446 9.60419,14.3945 15.1923,14.3945l0,0z" id="svg_3" fill="#000000"/>
     <path d="m85.2781,15.9478c-3.1164,-2.6846 -7.7451,-4.137 -12.6549,-4.137c-1.9808,0 -4.0024,0.2664 -5.9929,0.7529c-0.49651,2.6712 -1.72221,5.3951 -3.0153,8.2068c-1.3365,2.9075 -2.8519,6.1999 -3.7208,9.6936c-0.8686,3.4968 -1.0733,7.1198 -1.2534,10.3159c-0.1703,3.0192 -0.4031,7.0646 -1.8656,10.3309c0.9044,0.5885 1.7189,0.8686 2.4683,0.8686c4.4379,0 6.7301,-9.3595 13.3509,-17.0386c8.172,-9.4797 19.8409,-12.8171 12.6837,-18.9931l0,0z" id="svg_4" fill="#000000"/>
     <path d="m56.6784,6.30869c-1.1437,-0.28574 -2.3539,-0.4239 -3.6018,-0.4239c-4.8116,0 -10.1686,2.06763 -14.4606,5.69061c1.0001,3.02 1.061,6.4682 1.0959,8.9458c0.0421,2.8953 0.0888,6.1787 0.7367,9.3477c0.6478,3.172 1.8927,6.2087 2.9914,8.8907c1.6468,4.0132 3.1779,7.8443 2.3728,11.5589c0.759,0.184 1.4358,0.2814 2.0247,0.2814c6.4326,0 3.3208,-10.5203 6.0811,-21.6211c3.0202,-12.147 11.9321,-20.38497 2.7598,-22.67011l0,0z" id="svg_5" fill="#000000"/>
     <path d="m29.4653,11.1643c-0.4974,0 -1.0568,0.06 -1.6853,0.1893c-4.449,0.9089 -8.8117,4.436 -11.6268,9.1951c4.6012,1.4388 6.4501,6.4908 7.8354,10.3605c0.8162,2.2851 1.7439,4.8738 3.0923,7.1708c1.3513,2.3 3.1616,4.3686 4.7581,6.1935c2.0146,2.3017 4.046,4.6665 4.9325,7.4009c7.2062,-2.0469 -0.1417,-9.7336 -2.3558,-20.5729c-2.118,-10.3551 1.2386,-19.9404 -4.9504,-19.9372l0,0l0,0l0,0z" id="svg_6" fill="#000000"/>
     <path d="m13.4741,26.2758c-0.6989,0 -1.5153,0.2618 -2.4921,0.8361c-6.33071,3.7221 -9.868,14.9461 -4.9417,23.3314c3.41999,5.8213 10.0197,8.7435 15.8557,8.7435c2.5705,0 4.9925,-0.5682 6.9289,-1.7048c6.3335,-3.7223 -2.1244,-7.8987 -7.0524,-16.2811c-4.1641,-7.0926 -4.4722,-14.9251 -8.2984,-14.9251l0,0l0,0l0,0z" id="svg_7" fill="#000000"/>
    </g>
   </g>
  </g>
 </g>
</svg>