<svg width="100" height="100" xmlns="http://www.w3.org/2000/svg">
 <g>
  <title>Layer 1</title>
  <g id="svg_25">
   <path d="m83.8209,47.4615c-0.9602,-1.7722 -1.6406,-4.0603 -1.8491,-6.6281c-0.4718,-5.8655 1.668,-10.8092 4.7791,-11.0616c0.4884,-0.0384 0.9602,0.0823 1.4321,0.2579l7.528,-30.02971l-81.2772,29.26701c1.3827,3.8354 2.9465,7.6378 4.9217,11.3579c10.5074,19.7528 27.621,33.6675 47.1488,40.6797c0,0 5.91489,2.4417 8.5815,1.0206l8.7351,-34.8637l0,0zm-2.705,-17.2397c0.26891,3.3469 -2.2167,6.2715 -5.5692,6.5403c-3.347,0.2634 -6.2715,-2.2167 -6.5404,-5.5692c-0.2688,-3.3415 2.2277,-6.266 5.5747,-6.5403c3.3415,-0.2689 6.2715,2.2276 6.5349,5.5692zm-41.7003,5.9368c-0.3841,-4.7736 3.1714,-8.9382 7.9395,-9.3223c4.7791,-0.384 8.9491,3.1715 9.3277,7.9396c0.3841,4.7681 -3.1714,8.9436 -7.9395,9.3277c-4.7681,0.3841 -8.9382,-3.1714 -9.3277,-7.945l0,0zm16.1753,20.0545c-0.2524,-3.1001 2.0686,-5.8216 5.1686,-6.074c3.1056,-0.2414 5.8326,2.0741 6.07401,5.1742c0.2524,3.1056 -2.063,5.8325 -5.16311,6.0794c-3.1166,0.2469 -5.8326,-2.0685 -6.0795,-5.1796z" fill="#000000" id="svg_6"/>
   <path d="m23.8767,71.8233c-18.28778,-18.2878 -23.23694,-37.662 -23.5497,-38.9349l10.1178,-2.4636l-5.0589,1.229l5.0589,-1.24c0.439,1.7832 11.4292,43.7304 63.8509,58.5341l-2.8367,10.019c-21.5909,-6.0959 -36.8774,-16.4277 -47.5823,-27.1436l0,0z" fill="#000000" id="svg_10"/>
  </g>
 </g>
</svg>