<svg width="100" height="100" xmlns="http://www.w3.org/2000/svg">
 <g>
  <title>Layer 1</title>
  <g id="svg_1">
   <g id="Layer_5_6_">
    <g id="svg_2">
     <path fill="#d96836" d="m9.82739,70.53435c-6.98846,0 -6.98846,4.44499 -6.98846,6.75248c0,15.57709 15.47937,17.00709 34.57438,17.00709h25.49674c19.095,0 34.57437,-2.71829 34.57437,-17.00709c0,-2.30749 -0.66936,-6.75248 -6.92233,-6.75248h-80.7347l0,0z" id="svg_3"/>
     <g id="svg_4">
      <path fill="#d96836" d="m99.32401,58.59869c0,2.55104 -1.9861,4.63814 -4.41369,4.63814h-89.49663c-2.4276,0 -4.41369,-2.0871 -4.41369,-4.63814v-3.47793c0,-2.55105 1.9861,-4.63815 4.41369,-4.63815h89.49663c2.42759,0 4.41369,2.0871 4.41369,4.63815l0,3.47793l0,0z" id="svg_5"/>
     </g>
     <path fill="#d96836" d="m51.87613,3.57833h-3.42826c-19.09467,0 -45.60861,12.40165 -45.60861,32.46767c0,2.30749 0.66938,6.75215 6.922,6.75215h80.73536c6.98846,0 6.98846,-4.44466 6.98846,-6.75215c-0.00033,-20.06603 -26.51426,-32.46767 -45.60894,-32.46767zm-22.43056,25.74312c-1.82467,3.19792 -4.96735,4.7417 -7.01958,3.44863c-2.05223,-1.29341 -2.23667,-4.93347 -0.412,-8.1314c1.82467,-3.19758 4.96735,-4.74169 7.01958,-3.44829c2.0519,1.29306 2.23667,4.93348 0.412,8.13106zm20.71642,4.70865c-2.28529,0 -4.13816,-3.15636 -4.13816,-7.04986s1.85287,-7.04987 4.13816,-7.04987s4.13816,3.15636 4.13816,7.04987s-1.85287,7.04986 -4.13816,7.04986zm27.73601,-1.26003c-2.05222,1.29307 -5.19491,-0.25071 -7.01958,-3.44863c-1.82467,-3.19758 -1.64023,-6.83799 0.412,-8.13106c2.05222,-1.2934 5.1949,0.25071 7.01958,3.44829c1.825,3.19793 1.64055,6.83799 -0.412,8.1314z" id="svg_6"/>
    </g>
   </g>
  </g>
 </g>
</svg>