<svg width="100" height="100" xmlns="http://www.w3.org/2000/svg">
 <g>
  <title>Layer 1</title>
  <g id="svg_22">
   <g id="svg_23">
    <path id="svg_24" fill="#000000" d="m38.7372,69.6221c0.1779,0.0783 0.3819,0.1442 0.6074,0.1962c11.9285,2.7808 17.8504,4.5692 20.7801,5.6797c1.7394,0.6595 3.9328,0.6197 5.3085,-0.6319l8.89301,-8.0863c1.37569,-1.2516 1.3527,-3.2778 0.2883,-4.804c-3.5999,-5.1613 -4.3745,-12.3379 -4.4941,-16.5054c-0.0093,-0.2961 -0.0521,-0.5461 -0.1104,-0.7746c0.7991,-8.2995 -1.4864,-17.3904 -7.0524,-25.2987c-11.1047,-15.78259 -31.0536,-20.87638 -44.5558,-11.37602s-15.4438,29.99682 -4.3375,45.78132c6.3071,8.962 15.4639,14.4654 24.6729,15.8197l0,0l0,0zm0.8942,-58.8325c14.516,4.7717 20.1712,17.2676 23.3354,31.2422c1.0922,4.8253 -6.399,6.4681 -7.4911,1.6458c-2.537,-11.2044 -6.3715,-21.6988 -18.2033,-25.5886c-4.6934,-1.5429 -2.3513,-8.8469 2.359,-7.2994l0,0l0,0z"/>
    <path id="svg_25" fill="#000000" d="m85.6274,71.0103c-1.839,0.0153 -3.58611,0.5338 -5.1015,1.4939l-3.0753,-3.0263l-9.9759,10.1431l2.9495,2.9034c-1.109,1.6213 -1.7071,3.5416 -1.6918,5.537c0.0445,5.3929 4.468,9.7444 9.8609,9.6999c4.5309,-0.0369 7.962,-3.9436 9.0066,-8.183c4.3207,-1.0414 7.9251,-4.2393 7.8868,-8.8684c-0.0428,-5.3927 -4.4664,-9.7441 -9.8593,-9.6996l0,0zm0.10889,14.5068l-2.8866,-0.698l0.3819,3.2025c-0.0215,2.5646 -2.1198,4.6674 -4.6766,4.6874c-2.6076,0.0215 -4.7456,-2.083 -4.7672,-4.6889c-0.01221,-1.402 0.6227,-2.7347 1.7409,-3.6612l2.1551,-1.78391l-3.0631,-3.0125l2.8897,-2.9402l2.9602,2.9126l1.7685,-1.92799c0.905,-0.98631 2.12431,-1.5354 3.43121,-1.5462c2.6059,-0.0215 4.7456,2.083 4.7671,4.6888c0.0201,2.6095 -2.0829,4.7461 -4.7011,4.7676l0,0l0,0z"/>
   </g>
  </g>
 </g>
</svg>