<?xml version="1.0"?>
<svg version="1.1" xmlns="http://www.w3.org/2000/svg" xmlns:xlink="http://www.w3.org/1999/xlink" width="200" height="200">
    <desc iVinci="yes" version="4.6" gridStep="20" showGrid="no" snapToGrid="no" codePlatform="0"/>
    <g id="Layer1" name="Layer 2" opacity="1">
        <g id="Shape1">
            <desc shapeID="1" type="0" basicInfo-basicType="0" basicInfo-roundedRectRadius="12" basicInfo-polygonSides="6" basicInfo-starPoints="5" bounding="rect(-96.15,-96.15,192.3,192.3)" text="" font-familyName="" font-pixelSize="20" font-bold="0" font-underline="0" font-alignment="1" strokeStyle="0" markerStart="0" markerEnd="0" shadowEnabled="0" shadowOffsetX="0" shadowOffsetY="2" shadowBlur="4" shadowOpacity="160" blurEnabled="0" blurRadius="4" transform="matrix(1.02002,0,0,1.02002,99.075,101.925)" pers-center="0,0" pers-size="0,0" pers-start="0,0" pers-end="0,0" locked="0" mesh="" flag=""/>
            <path id="shapePath1" d="M161.041,200 L37.2107,200 C17.3203,200 0.999992,183.68 0.999992,163.789 L0.999992,40.0607 C0.999992,20.1703 17.3203,3.85 37.2107,3.85 L160.939,3.85 C180.83,3.85 197.15,20.1703 197.15,40.0607 L197.15,163.789 C197.15,183.782 180.932,200 161.041,200 Z" style="stroke:none;fill-rule:nonzero;fill:#fcee21;fill-opacity:1;"/>
        </g>
    </g>
    <g id="Layer2" name="Layer 1" opacity="1">
        <g id="Shape2">
            <desc shapeID="2" type="0" basicInfo-basicType="5" basicInfo-roundedRectRadius="12" basicInfo-polygonSides="6" basicInfo-starPoints="5" bounding="rect(-15.75,-26.8468,31.5001,53.6936)" text="" font-familyName="Helvetica" font-pixelSize="20" font-bold="0" font-underline="0" font-alignment="1" strokeStyle="0" markerStart="0" markerEnd="0" shadowEnabled="0" shadowOffsetX="0" shadowOffsetY="2" shadowBlur="4" shadowOpacity="160" blurEnabled="0" blurRadius="4" transform="matrix(-1.12183,-0.593721,-0.593724,1.12184,163.63,131.912)" pers-center="0,0" pers-size="0,0" pers-start="0,0" pers-end="0,0" locked="0" mesh="" flag=""/>
            <path id="shapePath2" d="M145.961,122.561 L165.359,171.381 L197.238,111.145 L145.961,122.561 Z" style="stroke:none;fill-rule:evenodd;fill:#f7931e;fill-opacity:1;"/>
        </g>
        <g id="Shape3">
            <desc shapeID="3" type="0" basicInfo-basicType="0" basicInfo-roundedRectRadius="12" basicInfo-polygonSides="6" basicInfo-starPoints="5" bounding="rect(-18.8768,-12.0493,37.7537,24.0986)" text="" font-familyName="" font-pixelSize="20" font-bold="0" font-underline="0" font-alignment="1" strokeStyle="0" markerStart="0" markerEnd="0" shadowEnabled="0" shadowOffsetX="0" shadowOffsetY="2" shadowBlur="4" shadowOpacity="160" blurEnabled="0" blurRadius="4" transform="matrix(0.94794,0.50169,-0.50169,0.94794,33.9921,109.356)" pers-center="0,0" pers-size="0,0" pers-start="0,0" pers-end="0,0" locked="0" mesh="" flag=""/>
            <path id="shapePath3" d="M48.8211,110.8 C53.0153,120.3 49.8771,127.376 41.6918,126.563 C33.5065,125.75 23.3353,117.455 19.1411,107.955 C14.9469,98.454 18.0851,91.378 26.2704,92.191 C34.5058,92.9092 44.5321,101.249 48.8211,110.8 Z" style="stroke:none;fill-rule:nonzero;fill:#f7931e;fill-opacity:1;"/>
        </g>
        <g id="Shape4">
            <desc shapeID="4" type="0" basicInfo-basicType="0" basicInfo-roundedRectRadius="12" basicInfo-polygonSides="6" basicInfo-starPoints="5" bounding="rect(-30.5104,-11.396,61.0209,22.7921)" text="" font-familyName="" font-pixelSize="20" font-bold="0" font-underline="0" font-alignment="1" strokeStyle="0" markerStart="0" markerEnd="0" shadowEnabled="0" shadowOffsetX="0" shadowOffsetY="2" shadowBlur="4" shadowOpacity="160" blurEnabled="0" blurRadius="4" transform="matrix(0.94794,0.50169,-0.50169,0.94794,87.6122,137.7)" pers-center="0,0" pers-size="0,0" pers-start="0,0" pers-end="0,0" locked="0" mesh="" flag=""/>
            <path id="shapePath4" d="M113.225,141.123 C121.779,150.868 117.314,157.242 103.157,155.332 C88.9998,153.421 70.5541,144.023 61.9996,134.277 C53.4451,124.532 57.9105,118.159 72.0675,120.069 C86.2245,121.98 104.67,131.378 113.225,141.123 Z" style="stroke:none;fill-rule:nonzero;fill:#f7931e;fill-opacity:1;"/>
        </g>
        <g id="Shape5">
            <desc shapeID="5" type="0" basicInfo-basicType="0" basicInfo-roundedRectRadius="12" basicInfo-polygonSides="6" basicInfo-starPoints="5" bounding="rect(0,0,0,0)" text="" font-familyName="" font-pixelSize="20" font-bold="0" font-underline="0" font-alignment="1" strokeStyle="0" markerStart="0" markerEnd="0" shadowEnabled="0" shadowOffsetX="0" shadowOffsetY="2" shadowBlur="4" shadowOpacity="160" blurEnabled="0" blurRadius="4" transform="matrix(0.94794,0.50169,-0.50169,0.94794,118.407,33.1988)" pers-center="0,0" pers-size="0,0" pers-start="0,0" pers-end="0,0" locked="0" mesh="" flag=""/>
            <path id="shapePath5" d="M118.407,33.1988 Z" style="stroke:none;fill-rule:evenodd;fill:#f7931e;fill-opacity:1;"/>
        </g>
        <g id="Shape6">
            <desc shapeID="6" type="0" basicInfo-basicType="0" basicInfo-roundedRectRadius="12" basicInfo-polygonSides="6" basicInfo-starPoints="5" bounding="rect(-61.55,-15.5,123.1,31)" text="" font-familyName="" font-pixelSize="20" font-bold="0" font-underline="0" font-alignment="1" strokeStyle="0" markerStart="0" markerEnd="0" shadowEnabled="0" shadowOffsetX="0" shadowOffsetY="2" shadowBlur="4" shadowOpacity="160" blurEnabled="0" blurRadius="4" transform="matrix(0.94794,0.50169,-0.50169,0.94794,117.18,50.9939)" pers-center="0,0" pers-size="0,0" pers-start="0,0" pers-end="0,0" locked="0" mesh="" flag=""/>
            <path id="shapePath6" d="M166.119,79.9282 C161.111,74.487 161.98,65.9671 167.689,59.7662 C165.933,61.021 163.987,62.1754 161.852,63.2295 C151.325,68.2156 140.397,67.771 137.262,62.2291 C135.327,58.778 136.971,54.0663 141.147,49.8449 C136.597,51.5628 131.25,52.4947 126.032,52.0382 C115.354,51.1196 109.493,45.2268 112.955,38.686 C113.808,37.0745 115.04,35.6637 116.701,34.3587 C107.881,40.2479 98.0679,41.3643 94.2869,36.815 C91.2979,33.2916 92.3287,28.1339 97.2289,21.6264 L97.1341,21.5762 L51.058,34.8079 L154.478,89.5423 L174.422,83.9584 C171.221,83.3566 168.177,82.2307 166.119,79.9282 Z" style="stroke:none;fill-rule:nonzero;fill:#f7931e;fill-opacity:1;"/>
        </g>
        <g id="Shape7">
            <desc shapeID="7" type="0" basicInfo-basicType="0" basicInfo-roundedRectRadius="12" basicInfo-polygonSides="6" basicInfo-starPoints="5" bounding="rect(-84.4,-42,168.8,84)" text="" font-familyName="" font-pixelSize="20" font-bold="0" font-underline="0" font-alignment="1" strokeStyle="0" markerStart="0" markerEnd="0" shadowEnabled="0" shadowOffsetX="0" shadowOffsetY="2" shadowBlur="4" shadowOpacity="160" blurEnabled="0" blurRadius="4" transform="matrix(0.94794,0.50169,-0.50169,0.94794,83.8894,88.102)" pers-center="0,0" pers-size="0,0" pers-start="0,0" pers-end="0,0" locked="0" mesh="" flag=""/>
            <path id="shapePath7" d="M163.896,130.445 C152.258,152.433 107.005,151.301 62.8184,127.915 C18.6322,104.53 -7.75393,67.7477 3.88326,45.7593 C15.5204,23.7709 60.7742,24.9033 104.96,48.2885 C149.147,71.6737 175.533,108.456 163.896,130.445 Z" style="stroke:none;fill-rule:evenodd;fill:#d4145a;fill-opacity:1;"/>
        </g>
        <g id="Shape8">
            <desc shapeID="8" type="0" basicInfo-basicType="0" basicInfo-roundedRectRadius="12" basicInfo-polygonSides="6" basicInfo-starPoints="5" bounding="rect(-11.9,-11.9,23.8,23.8)" text="" font-familyName="" font-pixelSize="20" font-bold="0" font-underline="0" font-alignment="1" strokeStyle="0" markerStart="0" markerEnd="0" shadowEnabled="0" shadowOffsetX="0" shadowOffsetY="2" shadowBlur="4" shadowOpacity="160" blurEnabled="0" blurRadius="4" transform="matrix(0.94794,0.50169,-0.50169,0.94794,28.6902,49.7873)" pers-center="0,0" pers-size="0,0" pers-start="0,0" pers-end="0,0" locked="0" mesh="" flag=""/>
            <path id="shapePath8" d="M39.9707,55.7574 C36.6735,61.9874 28.9501,64.365 22.7201,61.0677 C16.49,57.7705 14.1125,50.0472 17.4097,43.8171 C20.7069,37.5871 28.4303,35.2096 34.6603,38.5068 C40.8904,41.804 43.2679,49.5273 39.9707,55.7574 Z" style="stroke:none;fill-rule:evenodd;fill:#99ddd8;fill-opacity:1;"/>
        </g>
        <g id="Shape9">
            <desc shapeID="9" type="0" basicInfo-basicType="0" basicInfo-roundedRectRadius="12" basicInfo-polygonSides="6" basicInfo-starPoints="5" bounding="rect(-11.9,-11.9,23.8,23.8)" text="" font-familyName="" font-pixelSize="20" font-bold="0" font-underline="0" font-alignment="1" strokeStyle="0" markerStart="0" markerEnd="0" shadowEnabled="0" shadowOffsetX="0" shadowOffsetY="2" shadowBlur="4" shadowOpacity="160" blurEnabled="0" blurRadius="4" transform="matrix(0.94794,0.50169,-0.50169,0.94794,59.4982,66.0922)" pers-center="0,0" pers-size="0,0" pers-start="0,0" pers-end="0,0" locked="0" mesh="" flag=""/>
            <path id="shapePath9" d="M70.7787,72.0623 C67.4815,78.2924 59.7582,80.6699 53.5281,77.3727 C47.2981,74.0755 44.9206,66.3521 48.2178,60.1221 C51.515,53.892 59.2383,51.5145 65.4684,54.8117 C71.6984,58.1089 74.0759,65.8323 70.7787,72.0623 Z" style="stroke:none;fill-rule:evenodd;fill:#99ddd8;fill-opacity:1;"/>
        </g>
        <g id="Shape10">
            <desc shapeID="10" type="0" basicInfo-basicType="0" basicInfo-roundedRectRadius="12" basicInfo-polygonSides="6" basicInfo-starPoints="5" bounding="rect(-3.9,-3.9,7.8,7.8)" text="" font-familyName="" font-pixelSize="20" font-bold="0" font-underline="0" font-alignment="1" strokeStyle="0" markerStart="0" markerEnd="0" shadowEnabled="0" shadowOffsetX="0" shadowOffsetY="2" shadowBlur="4" shadowOpacity="160" blurEnabled="0" blurRadius="4" transform="matrix(0.94794,0.50169,-0.50169,0.94794,30.4306,55.4408)" pers-center="0,0" pers-size="0,0" pers-start="0,0" pers-end="0,0" locked="0" mesh="" flag=""/>
            <path id="shapePath10" d="M34.1275,57.3974 C33.0469,59.4392 30.5158,60.2184 28.474,59.1378 C26.4322,58.0572 25.653,55.526 26.7336,53.4842 C27.8142,51.4424 30.3454,50.6632 32.3872,51.7438 C34.4289,52.8244 35.2081,55.3556 34.1275,57.3974 Z" style="stroke:none;fill-rule:evenodd;fill:#000000;fill-opacity:1;"/>
        </g>
        <g id="Shape11">
            <desc shapeID="11" type="0" basicInfo-basicType="0" basicInfo-roundedRectRadius="12" basicInfo-polygonSides="6" basicInfo-starPoints="5" bounding="rect(-3.9,-3.9,7.8,7.8)" text="" font-familyName="" font-pixelSize="20" font-bold="0" font-underline="0" font-alignment="1" strokeStyle="0" markerStart="0" markerEnd="0" shadowEnabled="0" shadowOffsetX="0" shadowOffsetY="2" shadowBlur="4" shadowOpacity="160" blurEnabled="0" blurRadius="4" transform="matrix(0.94794,0.50169,-0.50169,0.94794,59.1531,70.642)" pers-center="0,0" pers-size="0,0" pers-start="0,0" pers-end="0,0" locked="0" mesh="" flag=""/>
            <path id="shapePath11" d="M62.8501,72.5986 C61.7695,74.6404 59.2383,75.4196 57.1966,74.339 C55.1548,73.2584 54.3756,70.7272 55.4562,68.6854 C56.5368,66.6437 59.068,65.8645 61.1097,66.9451 C63.1515,68.0257 63.9307,70.5569 62.8501,72.5986 Z" style="stroke:none;fill-rule:evenodd;fill:#000000;fill-opacity:1;"/>
        </g>
        <g id="Shape12">
            <desc shapeID="12" type="0" basicInfo-basicType="0" basicInfo-roundedRectRadius="12" basicInfo-polygonSides="6" basicInfo-starPoints="5" bounding="rect(-10,-3.05,20,6.1)" text="" font-familyName="" font-pixelSize="20" font-bold="0" font-underline="0" font-alignment="1" strokeStyle="0" markerStart="0" markerEnd="0" shadowEnabled="0" shadowOffsetX="0" shadowOffsetY="2" shadowBlur="4" shadowOpacity="160" blurEnabled="0" blurRadius="4" transform="matrix(0.94794,0.50169,-0.50169,0.94794,32.2827,84.2699)" pers-center="0,0" pers-size="0,0" pers-start="0,0" pers-end="0,0" locked="0" mesh="" flag=""/>
            <path id="shapePath12" d="M43.2923,86.3956 C41.5865,89.6186 35.9663,89.9204 30.7526,87.1611 C25.5389,84.4018 22.6277,79.5848 24.3335,76.3618 " style="stroke:none;fill-rule:nonzero;fill:#eea1bd;fill-opacity:1;"/>
        </g>
    </g>
</svg>
