<?xml version="1.0"?>
<svg version="1.1" xmlns="http://www.w3.org/2000/svg" xmlns:xlink="http://www.w3.org/1999/xlink" width="200" height="200">
    <desc iVinci="yes" version="4.6" gridStep="20" showGrid="no" snapToGrid="no" codePlatform="0"/>
    <g id="Layer1" name="Layer 1" opacity="1">
        <g id="Shape1">
            <desc shapeID="1" type="0" basicInfo-basicType="0" basicInfo-roundedRectRadius="12" basicInfo-polygonSides="6" basicInfo-starPoints="5" bounding="rect(-96.15,-96.15,192.3,192.3)" text="" font-familyName="" font-pixelSize="20" font-bold="0" font-underline="0" font-alignment="1" strokeStyle="0" markerStart="0" markerEnd="0" shadowEnabled="0" shadowOffsetX="0" shadowOffsetY="2" shadowBlur="4" shadowOpacity="160" blurEnabled="0" blurRadius="4" transform="matrix(1.03029,0,0,1.03029,99.9875,99.8625)" pers-center="0,0" pers-size="0,0" pers-start="0,0" pers-end="0,0" locked="0" mesh="" flag=""/>
            <path id="shapePath1" d="M162.578,198.925 L37.5003,198.925 C17.4097,198.925 0.925003,182.44 0.925003,162.35 L0.925003,37.3753 C0.925003,17.2847 17.4097,0.800003 37.5003,0.800003 L162.475,0.800003 C182.565,0.800003 199.05,17.2847 199.05,37.3753 L199.05,162.35 C199.05,182.543 182.668,198.925 162.578,198.925 Z" style="stroke:none;fill-rule:nonzero;fill:#fcee21;fill-opacity:1;"/>
        </g>
        <g id="Shape2">
            <desc shapeID="2" type="0" basicInfo-basicType="0" basicInfo-roundedRectRadius="12" basicInfo-polygonSides="6" basicInfo-starPoints="5" bounding="rect(-96.55,-88.25,193.1,176.5)" text="" font-familyName="" font-pixelSize="20" font-bold="0" font-underline="0" font-alignment="1" strokeStyle="0" markerStart="0" markerEnd="0" shadowEnabled="0" shadowOffsetX="0" shadowOffsetY="2" shadowBlur="4" shadowOpacity="160" blurEnabled="0" blurRadius="4" transform="matrix(1,0,0,1,98.55,100.15)" pers-center="0,0" pers-size="0,0" pers-start="0,0" pers-end="0,0" locked="0" mesh="" flag=""/>
            <path id="shapePath2" d="M195,11.9 L147.1,59.8 C133.3,36.6 107.9,21.1 79,21.1 C41.7,21.1 10.4,46.9 2,81.7 L87.7,107.5 L8.9,137 C22.1,162.2 48.5,179.3 79,179.3 C108,179.3 133.4,163.7 147.2,140.5 L195.1,188.4 L195.1,174.4 L154.6,136.3 L195.1,159.7 L195.1,147.2 L156.3,124.4 L195.1,136.4 L195.1,126.4 L157.6,110.2 C157.6,110.1 157.7,110 157.7,109.9 L195.1,116.6 L195.1,103.7 L158.2,99.1 C158.2,98.9 158.2,98.7 158.2,98.5 L195,94.6 L195,86.8 L156.7,85 C156.7,84.8 156.7,84.7 156.7,84.5 L195.1,77.4 L195.1,66.9 L154.9,77.5 C154.9,77.5 154.9,77.4 154.9,77.4 L195,56 L195,45.2 L154.1,70.1 L195,29.9 L195,11.9 Z" style="stroke:none;fill-rule:nonzero;fill:#a381bd;fill-opacity:1;"/>
        </g>
        <g id="Shape3">
            <desc shapeID="3" type="0" basicInfo-basicType="0" basicInfo-roundedRectRadius="12" basicInfo-polygonSides="6" basicInfo-starPoints="5" bounding="rect(-13.0072,-8.4532,26.0143,16.9064)" text="" font-familyName="" font-pixelSize="20" font-bold="0" font-underline="0" font-alignment="1" strokeStyle="0" markerStart="0" markerEnd="0" shadowEnabled="0" shadowOffsetX="0" shadowOffsetY="2" shadowBlur="4" shadowOpacity="160" blurEnabled="0" blurRadius="4" transform="matrix(1,0,0,1,56.7928,71.2532)" pers-center="0,0" pers-size="0,0" pers-start="0,0" pers-end="0,0" locked="0" mesh="" flag=""/>
            <path id="shapePath3" d="M69.8,70 C67.8,77.1 60.5,81.2 53.4,79.2 C46.3,77.2 42.3,69.8 44.3,62.8 " style="stroke:#c2abd3;stroke-opacity:1;stroke-width:3;stroke-linejoin:miter;stroke-miterlimit:2;stroke-linecap:butt;fill-rule:nonzero;fill:#662d91;fill-opacity:1;"/>
        </g>
        <g id="Shape4">
            <desc shapeID="4" type="0" basicInfo-basicType="0" basicInfo-roundedRectRadius="12" basicInfo-polygonSides="6" basicInfo-starPoints="5" bounding="rect(-12.3,-24.2,24.6,48.4)" text="" font-familyName="" font-pixelSize="20" font-bold="0" font-underline="0" font-alignment="1" strokeStyle="0" markerStart="0" markerEnd="0" shadowEnabled="0" shadowOffsetX="0" shadowOffsetY="2" shadowBlur="4" shadowOpacity="160" blurEnabled="0" blurRadius="4" transform="matrix(1,0,0,1,122.4,107.8)" pers-center="0,0" pers-size="0,0" pers-start="0,0" pers-end="0,0" locked="0" mesh="" flag=""/>
            <path id="shapePath4" d="M134.7,107.8 C134.7,121.165 129.193,132 122.4,132 C115.607,132 110.1,121.165 110.1,107.8 C110.1,94.4347 115.607,83.6 122.4,83.6 C129.193,83.6 134.7,94.4347 134.7,107.8 Z" style="stroke:#d4a9d2;stroke-opacity:1;stroke-width:4;stroke-linejoin:miter;stroke-miterlimit:2;stroke-linecap:butt;fill-rule:evenodd;fill:#662d91;fill-opacity:1;"/>
        </g>
    </g>
</svg>
