<svg width="100" height="100" xmlns="http://www.w3.org/2000/svg">
 <g>
  <title>Layer 1</title>
  <g id="svg_73">
   <g id="svg_74" fill="#ffc700">
    <path id="svg_75" d="m99.5378,23.7288c-0.85101,-1.2012 -2.6515,-1.5199 -4.0942,-0.8885c-0.95911,0.4194 -1.88641,1.0432 -2.8101,1.6082c-0.5854,-0.5882 -1.2469,-1.1236 -1.9855,-1.5678c1.223,-0.7786 1.7402,-2.108 0.9104,-3.2796c-0.78111,-1.1035 -2.7445,-1.6498 -4.0942,-0.8884c-1.5632,0.8806 -3.37251,2.3077 -4.9375,2.7782c-0.4542,0.1362 -0.8543,0.3452 -1.1927,0.599c-0.3496,0.1286 -0.6991,0.274 -1.0506,0.4412c-2.5724,1.215 -5.2272,2.2302 -7.9324,3.1527v-5.3818c0.00031,-9.1208 -8.9303,-16.51431 -19.9471,-16.51431h-6.3168c-11.0171,0 -19.9476,7.39351 -19.9476,16.51431v6.5083c-3.9894,0.0186 -7.9772,0.0866 -11.9685,0.0974c-0.4356,0.0016 -0.8526,0.0248 -1.2562,0.0619c-0.1346,-0.0231 -0.2673,-0.0479 -0.4057,-0.0619c-2.54251,-0.2444 -5.10744,-0.2739 -7.64625,-0.5509c-1.62077,-0.1766 -2.99128,1.2614 -2.99128,2.4764c0,1.4842 1.37603,2.3014 2.99128,2.4764c0.21689,0.0232 0.43741,0.0293 0.6543,0.0495c-0.28428,0.5107 -0.4917,1.0508 -0.6543,1.6019h-1.32728c-3.85858,0 -3.85858,4.9543 0,4.9543h1.49564c0.13081,0.3544 0.29164,0.698 0.47487,1.034c-0.25621,0.0525 -0.51401,0.0974 -0.76836,0.1563c-3.71274,0.8558 -2.13317,5.6368 1.59084,4.7763c1.82084,-0.4195 3.59686,-0.6314 5.46094,-0.6918c0.7458,0.1362 1.5273,0.2321 2.3891,0.2291c3.9894,-0.0108 7.9791,-0.079 11.9685,-0.0975v31.238c0,1.0676 0.1327,2.1094 0.3664,3.1198c-0.2151,0.66721 -0.3664,1.35271 -0.3664,2.07121v9.3571c0,4.501 4.5373,8.25719 9.9737,8.25719c4.6233,0 8.566,-2.7253 9.6523,-6.3055c0.1083,0.0015 0.2132,0.0139 0.3215,0.0139h6.317c0.1083,0 0.2131,-0.01241 0.3214,-0.0139c1.0863,3.5802 5.029,6.3055 9.6523,6.3055c5.4365,0 9.9738,-3.7562 9.9738,-8.25719v-12.1095c0,-0.2734 -0.0674,-0.5337 -0.0992,-0.7999c0.0635,-0.5381 0.0992,-1.08511 0.0992,-1.6372v-31.2522c6.1506,-1.8774 12.2994,-3.8306 17.9993,-6.5207c0.2586,-0.1222 0.4729,-0.2601 0.7085,-0.3917c2.307,-0.472 4.5547,-0.9796 6.7396,-1.8463c1.4701,-0.5835 1.8474,-2.2969 1.0733,-3.3896c-0.7926,-1.1206 -2.2991,-1.3837 -3.6735,-0.992c-0.0018,-0.4086 -0.0319,-0.8172 -0.1063,-1.2228c1.09731,-0.6238 2.1556,-1.2956 3.3707,-1.8264c1.4329,-0.6312 1.8633,-2.2641 1.0671,-3.3908l0,0l0,0.0001zm-63.0377,-8.1304c1.1143,-0.8915 2.8885,-0.8622 3.9652,0.0649l2.0753,1.786l0.6262,0.5402l0.6318,0.5433c1.1909,-0.8466 2.4678,-1.4611 3.8082,-1.8017v-0.7985v-0.794v-2.2689c0,-1.2814 1.2544,-2.3216 2.8043,-2.3216c1.5499,0 2.8043,1.04 2.8043,2.3216v2.4145v0.7971v0.8311c1.2451,0.4071 2.4266,1.0556 3.5315,1.9007l0.5795,-0.5882l0.5739,-0.5804l1.5368,-1.5569c0.9776,-0.992 2.7499,-1.1423 3.9446,-0.3281c1.2002,0.8094 1.376,2.2736 0.3962,3.2657l-2.2957,2.3261l-0.5983,0.6052l-0.6113,0.619c2.7669,3.9962 4.4961,9.585 4.4961,15.7761c0,12.1079 -6.5899,21.9591 -14.6904,21.9591s-14.6904,-9.8497 -14.6904,-21.9591c0,-6.4247 1.8657,-12.1946 4.8176,-16.2141l-0.6488,-0.5586l-0.6357,-0.548l-2.5013,-2.1529c-1.0714,-0.9209 -1.0357,-2.3897 0.0805,-3.2796l-0.0001,0z"/>
    <path id="svg_76" d="m50.0783,55.3427c6.7732,0 12.0807,-7.4617 12.0807,-16.9894c0,-6.0346 -2.1331,-11.2319 -5.4158,-14.2392c-0.643,-0.5897 -1.3291,-1.0927 -2.0545,-1.5029c-1.4152,-0.8 -2.9687,-1.2475 -4.6101,-1.2475c-1.1235,0 -2.2004,0.223 -3.225,0.6083c-1.3331,0.5016 -2.5688,1.2956 -3.6679,2.3526c-3.1539,3.035 -5.1879,8.1334 -5.1879,14.0284c-0.0002,9.528 5.3073,16.9897 12.0805,16.9897l0,0l0,0z"/>
   </g>
  </g>
 </g>
</svg>