<svg width="100" height="100" xmlns="http://www.w3.org/2000/svg">
 <g>
  <title>Layer 1</title>
  <g id="svg_38">
   <g id="svg_39" fill="#ff7f00">
    <path d="m19.83438,86.79789v6.13446c0,2.18459 2.00233,3.95451 4.47333,3.95451s4.47333,-1.7701 4.47333,-3.95451v-3.88349c2.03624,0.39389 4.16031,0.73248 6.35944,1.01234v2.87095c0,2.18462 2.00233,3.95451 4.47334,3.95451c2.47121,0 4.47333,-1.7701 4.47333,-3.95451v-2.08965c2.02567,0.09964 4.08699,0.15668 6.18575,0.15668c2.28675,0 4.53431,-0.0648 6.73345,-0.18198v2.11495c0,2.18462 2.00233,3.95451 4.47333,3.95451c2.47123,0 4.47334,-1.7701 4.47334,-3.95451v-2.93909c2.2009,-0.29111 4.32497,-0.64219 6.35943,-1.04713v3.98778c0,2.18462 2.00234,3.95451 4.47334,3.95451c2.47122,0 4.47333,-1.7701 4.47333,-3.95451v-6.31133c4.80794,-1.58659 8.72851,-3.53535 11.45552,-5.73416c2.75211,-2.21613 4.29635,-4.68385 4.29635,-7.2859c0,-0.91755 -0.19326,-1.81602 -0.56001,-2.6954c-1.92704,-7.99154 -13.10543,-14.9437 -13.10543,-14.9437c-2.27794,-1.05028 -3.90253,-3.469 -5.05669,-6.12006c-0.84641,0.00156 -1.73926,0.10919 -2.78249,0.39545c-0.16817,0.04593 -0.33813,0.09494 -0.5063,0.14069c-3.33172,0.92067 -6.77285,1.93142 -10.17963,2.54032c-0.79974,0.14245 -1.56932,0.24209 -2.32439,0.31955c-6.04619,0.62332 -10.78808,-0.8257 -15.76619,-4.53035c-4.50921,-3.35513 -1.35998,-8.31573 3.13492,-9.4199v6.49192h9.15623v-4.07476c2.24207,0.33859 4.8152,-0.18509 7.33463,-0.90958v6.03949h2.4175h6.67621h0.06274v-0.70234v-6.17084v-1.63096c0.02511,-0.00309 0.04822,-0.00309 0.07331,-0.00641c-1.19666,-19.63361 -12.67902,-35.03755 -26.67732,-35.03755c-14.79275,0 -26.78694,17.2009 -26.78694,38.41819c-1.90569,14.26181 -4.09954,8.94059 -12.02634,17.39704s-6.55976,14.49747 -6.55976,14.49747c0,5.28012 6.32532,10.00681 16.29935,13.19731zm25.52008,-62.9715c0,-3.20316 2.93636,-5.79895 6.55976,-5.79895h9.0202c3.62339,0 6.55976,2.59579 6.55976,5.79895v2.65747c0,3.20316 -2.93636,5.79896 -6.55976,5.79896h-9.0202c-3.62341,0 -6.55976,-2.59579 -6.55976,-5.79896c0,0 0,-2.65747 0,-2.65747z" id="svg_40"/>
    <circle cx="52.46169" cy="23.10208" r="3.98623" id="svg_41"/>
   </g>
  </g>
 </g>
</svg>