<?xml version="1.0" encoding="utf-8"?>
<!-- Generator: Adobe Illustrator 19.2.0, SVG Export Plug-In . SVG Version: 6.00 Build 0)  -->
<svg version="1.1" id="Layer_1" xmlns="http://www.w3.org/2000/svg" xmlns:xlink="http://www.w3.org/1999/xlink" x="0px" y="0px"
	 viewBox="0 0 200 200" style="enable-background:new 0 0 200 200;" xml:space="preserve">
<style type="text/css">
	.st0{fill:#FCEE21;}
	.st1{fill:#662D91;}
	.st2{fill:#F7931E;}
	.st3{fill:#FDF57A;}
</style>
<path class="st0" d="M160.5,197H39.2c-19.5,0-35.5-16-35.5-35.5V40.2c0-19.5,16-35.5,35.5-35.5h121.3c19.5,0,35.5,16,35.5,35.5
	v121.3C196,181,180,197,160.5,197z"/>
<g>
	<polygon class="st1" points="195,51.2 134.9,89.9 71.8,43 6.6,91.5 71.8,140 134.9,93.1 195,131.8 	"/>
	<path class="st2" d="M18.1,91.4c-0.7,1.8-4.4,1.7-8.2-0.2s-6.4-4.8-5.7-6.6c0.7-1.8,4.4-1.7,8.2,0.2S18.8,89.6,18.1,91.4z"/>
	<path class="st2" d="M17.5,90.7c0.4,1.9-2.5,4.3-6.6,5.5S3.2,96.8,2.7,95s2.5-4.3,6.6-5.5S17.1,88.8,17.5,90.7z"/>
	<ellipse class="st3" cx="49.6" cy="88" rx="22.6" ry="11.2"/>
	<ellipse cx="61.9" cy="87.9" rx="6.1" ry="6.7"/>
</g>
</svg>
