<svg width="100" height="100" xmlns="http://www.w3.org/2000/svg">
 <g>
  <title>Layer 1</title>
  <g id="svg_20">
   <g id="svg_21">
    <g id="svg_22" fill="#f0f">
     <path id="svg_23" d="m42.17373,80.30787v2.36625c0,4.86201 3.39987,8.80576 7.56644,8.80576c4.13632,0 7.56645,-3.94375 7.56645,-8.80576v-2.36625c-2.52215,0.83585 -5.04435,1.27145 -7.56645,1.27145s-5.0443,-0.42393 -7.56644,-1.27145z"/>
     <path id="svg_24" d="m17.8201,56.5746c-5.2661,-9.677 -8.52504,-20.5428 -8.52504,-28.9366c0,-1.8837 0.47379,-3.6842 1.41254,-5.3325c0.1009,-0.1765 0.2017,-0.3418 0.3121,-0.5062c-2.41052,-0.4118 -5.46774,-0.0355 -7.97994,3.1668c-3.41977,4.3557 -0.33293,13.9505 0.7667,18.7059c1.04922,4.5676 2.38096,9.3594 2.9964,14.1503c0.84754,6.6044 -1.90636,15.4456 2.54262,20.8846c1.95682,2.3898 4.71152,1.5297 6.58742,-0.6481c3.2085,-3.7197 4.5602,-8.2164 4.3281,-12.8905c-0.1512,-3.0604 -1.0284,-6.004 -2.441,-8.5937l0,0l0.0001,0z"/>
     <path id="svg_25" d="m95.6335,43.6608c1.0997,-4.7564 4.1865,-14.3511 0.7667,-18.7068c-2.5122,-3.2023 -5.5694,-3.5787 -7.9799,-3.1668c0.1104,0.1653 0.2112,0.3418 0.3121,0.5061c0.9388,1.6605 1.4126,3.4498 1.4126,5.3335c0,8.3817 -3.259,19.2596 -8.52509,28.9357c-1.41251,2.5906 -2.2897,5.5454 -2.4409,8.6058c-0.2321,4.6741 1.1196,9.17081 4.3281,12.8904c1.876,2.1788 4.6298,3.038 6.58739,0.6482c4.44901,-5.439 1.6951,-14.2802 2.5427,-20.8846c0.6154,-4.803 1.9471,-9.5827 2.9964,-14.1615l0,0l0,0l-0.0001,0z"/>
     <path id="svg_26" d="m81.711,47.9573c0.7262,-1.7658 1.382,-3.567 1.9672,-5.4034c1.5032,-4.7089 2.9258,-9.8888 2.9258,-14.9156c0,-1.6716 -0.6558,-3.2374 -1.87659,-4.5323c-5.16541,-5.6508 -20.0562,-8.535 -34.9873,-8.535c-14.9211,0 -29.8522,2.8842 -35.0075,8.535c-3.8639,4.0968 -1.1602,11.8547 0.1917,16.6814c1.6848,6.0157 4.0758,11.7724 7.1831,16.9757c5.8715,9.8418 15.1632,19.6245 25.8167,20.6135v-10.8894c-4.1161,-2.11909 -9.5942,-10.2067 -9.5942,-14.8921c0,-2.7077 5.7101,-4.0615 11.4102,-4.0615c5.6496,0 11.4102,1.3538 11.4102,4.0615c0,4.6854 -5.5588,12.773 -9.5943,14.8921v10.8894c10.6839,-1.0242 19.9855,-10.8541 25.8571,-20.7429c1.6345,-2.7548 3.0671,-5.6626 4.2979,-8.6764l0,0zm-53.6613,-3.8141c-1.5032,0 -2.7239,-2.4133 -2.7239,-5.38s1.2207,-5.3799 2.7239,-5.3799s2.7239,2.4133 2.7239,5.3799s-1.2207,5.38 -2.7239,5.38zm43.3406,0c-1.5031,0 -2.7239,-2.4133 -2.7239,-5.38s1.2208,-5.3799 2.7239,-5.3799c1.5032,0 2.7239,2.4133 2.7239,5.3799s-1.2207,5.38 -2.7239,5.38z"/>
    </g>
   </g>
  </g>
 </g>
</svg>