<svg width="100" height="100" xmlns="http://www.w3.org/2000/svg">
 <g>
  <title>Layer 1</title>
  <g id="svg_1">
   <g id="svg_2" fill="#f0f">
    <path id="svg_3" d="m60.31744,39.58249c1.56515,0 2.83279,1.26811 2.83279,2.83255c0,1.56397 -1.26764,2.83161 -2.83279,2.83161c-1.56373,0 -2.83256,-1.2674 -2.83256,-2.83161c0,-1.56468 1.26859,-2.83255 2.83256,-2.83255z"/>
    <path id="svg_4" d="m89.9873,81.3756c-1.9706,-3.7072 -4.203,-7.9102 -4.203,-14.5057c0,-11.0343 6.1204,-14.9163 6.3697,-15.0687c0.9055,-0.5357 1.203,-1.7041 0.6673,-2.6096c-0.53699,-0.9071 -1.7065,-1.2044 -2.61079,-0.6686c-0.33611,0.1999 -8.2364,5.0306 -8.2364,18.3469c0,7.54539 2.5771,12.3961 4.6472,16.294c1.4845,2.7905 2.6552,4.9967 2.6552,7.51839c0,1.8069 -0.3932,3.1114 -1.13589,3.7775c-0.7566,0.6771 -1.745,0.5767 -1.7636,0.5767c-0.0906,-0.0137 -0.1835,-0.0198 -0.2754,-0.0198h-7.012c0.816,-1.2775 1.2972,-2.7881 1.2972,-4.4142v-85.88225c0,-0.85513 -0.5705,-1.60559 -1.3953,-1.8356c-0.8222,-0.2319 -1.6992,0.1183 -2.1418,0.85019l-9.3044,15.40096c-2.8549,-0.0543 -11.2439,-0.1197 -36.3566,-0.1197c-5.3323,0 -7.9715,0.0038 -9.3048,0.0132l-8.5713,-16.50377c-0.4054,-0.78011 -1.2953,-1.18251 -2.1422,-0.97297c-0.854,0.20837 -1.45441,0.97297 -1.45441,1.85044v87.1972c0,4.5343 3.68791,8.22411 8.22341,8.22411h29.1106h25.1139h13.8335c0.1251,0.0111 0.3024,0.0224 0.5233,0.0224c0.9315,0 2.607,-0.2072 4.0827,-1.481c1.6471,-1.4238 2.4831,-3.6721 2.4831,-6.686c0.0003,-3.469 -1.5042,-6.3041 -3.09921,-9.3041l0,0l0,0zm-60.2042,-32.3192c-3.6623,0 -6.6421,-2.9791 -6.6421,-6.6414c0,-3.663 2.9809,-6.6425 6.6421,-6.6425c3.6618,0 6.642,2.9795 6.642,6.6425c0,3.6623 -2.9791,6.6414 -6.642,6.6414zm18.6013,7.6536h-1.4068l-0.1538,2.6465c-0.0584,1.0122 -0.898,1.7947 -1.9001,1.7947c-0.0367,0 -0.0743,-0.0012 -0.1117,-0.0026c-1.0499,-0.0621 -1.8528,-0.9635 -1.7902,-2.0118l0.1409,-2.4257h-1.4455c-1.0512,0 -1.9052,-0.852 -1.9052,-1.9049c0,-1.0532 0.854,-1.9053 1.9052,-1.9053h6.6675c1.0517,0 1.905,0.8521 1.905,1.9053c-0.0003,1.0529 -0.8535,1.9038 -1.9053,1.9038l0,0zm11.933,-7.6536c-3.6622,0 -6.6425,-2.9791 -6.6425,-6.6414c0,-3.663 2.9814,-6.6425 6.6425,-6.6425c3.6637,0 6.6451,2.9795 6.6451,6.6425c-0.0002,3.6623 -2.9814,6.6414 -6.6451,6.6414z"/>
    <circle id="svg_5" r="2.83208" cy="42.41433" cx="29.78306"/>
   </g>
  </g>
 </g>
</svg>