<svg width="100" height="100" xmlns="http://www.w3.org/2000/svg">
 <g>
  <title>Layer 1</title>
  <g id="svg_97">
   <g id="svg_98" fill="#f0f">
    <path d="m75.29004,81.4759l0.25302,-0.27657l-0.36904,-0.12462c-1.39996,-0.47211 -2.70933,-1.19548 -3.89382,-2.14274l-0.24309,-0.1925l-0.17127,0.24821c-1.80547,2.57027 -4.46617,4.39187 -7.67272,4.80623l0,0c-0.46186,0.06282 -0.92152,0.09119 -1.37675,0.09119c-2.71263,-0.00204 -5.28936,-1.02934 -7.44069,-2.7415l-0.24198,-0.19249l-0.17348,0.24518c-1.80216,2.56521 -4.46065,4.38071 -7.66388,4.79609c-0.45855,0.06079 -0.92373,0.08815 -1.38118,0.08815c-2.71816,0 -5.2993,-1.03237 -7.44952,-2.75366l-0.23978,-0.19147l-0.17458,0.24619c-0.86628,1.22993 -1.93144,2.27648 -3.15682,3.09102l-0.32264,0.2158l0.32927,0.20161c4.1557,2.5409 9.48925,4.29055 16.28686,4.29055c1.70935,0 3.51151,-0.11144 5.41312,-0.34851l0,0h0.00221c9.46384,-1.28159 15.65815,-4.95718 19.68677,-9.35615l0,0z" id="svg_99"/>
    <path d="m79.19711,74.33038c-0.10717,0.05674 -0.18894,0.08105 -0.21877,0.07902c-0.47733,0 -0.93588,-0.0314 -1.41985,-0.0314c-2.70822,-0.00202 -5.28494,-1.08707 -7.43627,-2.80735l-0.23977,-0.19249l-0.17348,0.2472c-1.80769,2.56522 -4.46176,4.34931 -7.66609,4.76368c-0.45524,0.06078 -0.9149,0.07294 -1.37897,0.07294c-2.71042,-0.00203 -5.28715,-1.03541 -7.43737,-2.75061l-0.24088,-0.1925l-0.17347,0.24517c-1.80548,2.56522 -4.46176,4.37566 -7.66278,4.79104c-0.46297,0.0618 -0.92263,0.08713 -1.38228,0.08713c-2.71153,-0.00202 -5.28826,-1.04351 -7.43627,-2.76074l-0.24198,-0.19351l-0.17237,0.24721c-0.90827,1.29172 -2.00548,2.50341 -3.26732,3.38178c-1.26627,0.8804 -2.68391,1.43255 -4.25845,1.43255h-0.00663h-0.00552c0,0 -0.21657,0.0081 -0.49833,0.01723c-0.28176,0.00912 -0.62871,0.01722 -0.87843,0.01722h-0.57568l0.3569,0.41132c1.35797,1.56527 3.26731,3.30074 4.37336,4.42429v0.29179l0.38673,-0.15298c2.27729,-0.90269 3.3314,-2.20151 4.44961,-3.77792l0.00442,-0.00607l0.6707,-1.09417l0.83092,0.70615l0,0c2.09718,1.99078 4.72142,3.13863 7.35339,3.14066l0,0h0.00221h0.00331c0.38894,0 0.8055,-0.0233 1.20439,-0.07598c3.05075,-0.39714 5.61311,-2.29877 7.23406,-5.1132l0.48286,-0.82671l0.71711,0.67676l-0.00443,-0.00404c2.10271,1.99584 4.67502,3.14471 7.31804,3.14471l0,0h0.00221h0.00221c0.39005,0 0.77898,-0.0233 1.17234,-0.07396c3.05517,-0.39714 5.59985,-2.29674 7.22412,-5.11219l0.47623,-0.82873l0.71047,0.67474c1.44968,1.3829 3.13583,2.35853 4.90373,2.83166l0.18784,0.05167l0.11491,-0.1469c1.40106,-1.79423 2.48833,-3.54794 3.32698,-5.41207l0.2011,-0.44578l-0.5138,0.10233c-0.18231,0.03445 -0.30939,0.11043 -0.42099,0.16109l0,0z" id="svg_100"/>
    <path d="m77.79384,66.72693l0.03646,0.25126l-0.03867,-0.25126c-0.46408,0.06181 -0.92153,0.09119 -1.38339,0.09119c-2.71042,-0.00202 -5.28715,-1.02933 -7.43516,-2.74251l-0.24419,-0.19148l-0.17126,0.24518c-1.80547,2.56217 -4.46286,4.37869 -7.66609,4.79407c-0.45966,0.06079 -0.91711,0.08916 -1.37234,0.08916c-2.71485,0 -5.28937,-1.02934 -7.4429,-2.74657l-0.24309,-0.19046l-0.17016,0.24619c-1.80659,2.56825 -4.46287,4.38072 -7.66168,4.79205c-0.46628,0.0618 -0.92926,0.09118 -1.38891,0.09118c-2.71153,0 -5.28605,-1.0273 -7.43405,-2.74048l-0.24088,-0.19047l-0.17458,0.24619c-1.80437,2.56217 -4.46065,4.37666 -7.66278,4.79407c-0.45745,0.06281 -0.91821,0.09118 -1.37455,0.09118c-1.11489,0 -2.20657,-0.19452 -3.2629,-0.52074l-0.58009,-0.18034l0.23756,0.5177c0.86186,1.87528 1.95133,3.86707 3.57781,6.04224l0.03204,0.04153l0.15801,0.09524l0.05746,0.03343l0.0674,0.00608c0.28839,0.02735 0.57567,0.04153 0.86407,0.04153c0.38673,0 0.77898,-0.0233 1.17013,-0.07193h0.00111l0,0c3.05075,-0.39715 5.59433,-2.30079 7.21638,-5.11422l0.47954,-0.82671l0.70606,0.67372c2.09829,1.99382 4.67059,3.14472 7.30809,3.14472l0,0h0.00552h0.00222c0.38894,0 0.7823,-0.02431 1.17566,-0.07497c3.05185,-0.3941 5.59764,-2.29775 7.2208,-5.11118l0.47623,-0.8257l0.70937,0.67373c2.1005,1.99483 4.67281,3.14573 7.31141,3.14573l0,0h0.00221h0.00221c0.39005,0 0.77898,-0.02431 1.17235,-0.07497c3.05516,-0.39613 5.60427,-2.29978 7.22632,-5.11321l0.47623,-0.82771l0.70826,0.67372c2.11044,2.01003 4.69601,2.8732 7.30257,2.96844c0.22541,0.01013 0.4453,0.01216 0.65634,0.01216c1.39001,0 2.28833,-0.16615 2.3027,-0.16818l0.1569,-0.02938l0.05304,-0.13879c0.93147,-2.53685 1.43864,-4.91463 1.70713,-6.96722l0.07293,-0.54607l-0.50275,0.30798c-1.26516,0.76694 -2.67838,1.3363 -4.2021,1.53487l0,0z" id="svg_101"/>
    <path d="m82.65005,59.57027l-9.17434,-60.57027l-10.83617,14.99921l-18.51331,2.56521l-18.56083,2.24912l-14.9565,-11.64984l9.53345,60.52062l0.00331,0.00507c0,0.00202 0.10828,0.60888 0.28397,1.29881c0.08618,0.34649 0.19226,0.71323 0.30828,1.04047c0.11823,0.32825 0.24309,0.61192 0.40331,0.81961l0.03536,0.04559l0.05304,0.02533c1.42317,0.72945 2.94468,1.1276 4.49601,1.1276c0.38894,0 0.77788,-0.02229 1.16682,-0.07294l-0.03867,-0.25328l0.03867,0.25126c3.05296,-0.39917 5.59875,-2.3008 7.22412,-5.1132l0.47623,-0.82671l0.70938,0.67372c2.09497,1.99078 4.66838,3.1437 7.30257,3.1437l0,0h0.00221l0,0h0.00331c0.39115,0 0.78451,-0.02533 1.18229,-0.07497c3.04964,-0.3941 5.59654,-2.29471 7.2186,-5.11118l-0.00221,0.00405l0.47844,-0.8338l0.71048,0.67576c2.1016,1.99786 4.67612,3.14775 7.31804,3.14775l0,0l0,0h0.00221h0.00221c0.38562,0 0.77677,-0.02229 1.16793,-0.07497c3.05296,-0.39511 5.59985,-2.30079 7.22301,-5.11118l0.47844,-0.82771l0.70937,0.67271c2.0994,1.99788 4.67281,3.14674 7.3092,3.14674l0,0h0.00443c0.37788,0 0.77898,-0.00202 1.19112,-0.07699c3.29273,-0.60584 4.95126,-2.19037 4.97888,-2.21569l0.05966,-0.0537l0.01325,-0.07599c0.0873,-0.44171 0.11492,-0.96347 0.11492,-1.47206c0,-1.0273 -0.11492,-1.98875 -0.11492,-1.99381v-0.00406h-0.00552l0,0l0,0zm-61.97624,-20.1965c0,-5.66941 4.54795,-10.62052 10.84502,-11.4381c0.59888,-0.07598 1.19666,-0.1155 1.78448,-0.1155c6.18105,0 11.5798,4.171 12.47149,9.94375c0.08508,0.55215 0.12597,1.09822 0.12597,1.63821c0,5.66738 -4.54795,10.61748 -10.84281,11.43607c-0.59888,0.07497 -1.19555,0.11549 -1.78338,0.11549c-6.18105,0 -11.58311,-4.16999 -12.47591,-9.94476c-0.08619,-0.55114 -0.12486,-1.0962 -0.12486,-1.63517zm0.10387,-20.02934l-4.68275,0.60787l-0.79004,-5.11523l5.47278,4.50736zm27.81031,25.96824c0.12044,-0.01722 0.23977,-0.02229 0.3591,-0.02229c1.23533,0 2.31817,0.83177 2.49386,1.98672l0.0022,0.01114l0.38452,2.49126c0.00995,0.05268 0.01216,0.11144 0.01216,0.17932c0.00221,0.34446 -0.11491,0.8571 -0.29944,1.40925c-0.27403,0.83683 -0.6939,1.77701 -1.04086,2.50544c-0.17348,0.36371 -0.33149,0.67677 -0.44308,0.89762c-0.00331,0.00406 -0.00552,0.00608 -0.00552,0.01115c-0.36464,-0.37587 -1.03976,-1.08809 -1.68062,-1.87022c-0.36574,-0.44476 -0.72263,-0.91383 -0.99886,-1.35049c-0.28066,-0.43665 -0.48176,-0.84595 -0.54253,-1.14178l0,0c-0.16684,-0.7882 -0.26297,-1.40824 -0.31601,-1.82767c-0.02652,-0.21174 -0.04309,-0.3708 -0.05304,-0.48123c-0.00884,-0.10537 -0.00995,-0.15602 -0.00995,-0.15602v-0.01317l-0.00442,-0.01114c-0.01768,-0.11043 -0.0232,-0.22086 -0.0232,-0.32623c-0.00332,-1.13469 0.90826,-2.12957 2.16569,-2.29167l-0.03867,-0.25126l0.03867,0.25126zm11.09473,-21.03638c0.59998,-0.07801 1.19665,-0.1155 1.78448,-0.1155c6.18327,0 11.58201,4.17101 12.4726,9.94578c0.08286,0.55012 0.12375,1.09822 0.12375,1.6372c0,5.66434 -4.54464,10.61646 -10.84391,11.43303c-0.59998,0.077 -1.19556,0.11549 -1.78669,0.11549c-6.17995,0 -11.5787,-4.16796 -12.46818,-9.94274c-0.08397,-0.55114 -0.12706,-1.09822 -0.12706,-1.6372c-0.00111,-5.66637 4.55016,-10.61849 10.84502,-11.43608l0,0zm11.40743,-16.68301l0.78893,5.11219l-4.68275,0.60888l3.89382,-5.72108z" id="svg_102"/>
    <path d="m43.97595,93.97879c-0.00331,-0.02128 -0.15911,-0.75275 -0.71931,-1.50246c-0.27955,-0.37383 -0.66407,-0.75375 -1.1834,-1.04047c-0.51822,-0.28671 -1.17345,-0.47717 -1.96901,-0.47717c-0.21657,0 -0.4464,0.01519 -0.68396,0.0456h-0.00331h-0.00332l0.04199,0.2472l-0.04199,-0.2472c-1.59001,0.2097 -2.49827,0.98779 -2.96014,1.79423c-0.46739,0.80544 -0.52264,1.62505 -0.52485,2.00497c0,0.13474 0.00995,0.21174 0.00995,0.21781v0.00811l0.55578,3.76778l1.84857,-2.06879l2.18448,1.44775l1.6552,-1.94721l2.40326,1.5217l-0.60993,-3.76373v-0.00811l0,0z" id="svg_103"/>
    <path d="m75.76074,89.85034c-0.00884,-0.02027 -0.16243,-0.74972 -0.71822,-1.50145c-0.28286,-0.37182 -0.66517,-0.75376 -1.18118,-1.03946c-0.51932,-0.28671 -1.17123,-0.47617 -1.96458,-0.47617c-0.21767,0 -0.44861,0.0152 -0.6928,0.04559h-0.0022l0,0c-1.59222,0.20972 -2.50159,0.98475 -2.96346,1.79018c-0.46738,0.80643 -0.52264,1.62706 -0.52484,2.00698c0,0.13272 0.00883,0.21174 0.00883,0.21883v0.00608l0.55469,3.77082l1.85078,-2.06777l2.18115,1.44673l1.65962,-1.9472l2.40215,1.51562l-0.60882,-3.75968v-0.00911l-0.00111,0l0,0z" id="svg_104"/>
    <path d="m28.34764,40.02722c0.35247,2.28559 2.48612,3.93191 4.93025,3.93191c0.23314,0 0.47071,-0.01418 0.70937,-0.0466c2.48944,-0.32217 4.28718,-2.27952 4.28718,-4.52053c0,-0.21377 -0.01547,-0.42956 -0.04972,-0.64738c-0.35248,-2.28458 -2.48723,-3.93393 -4.93357,-3.93393c-0.23314,0 -0.46849,0.01519 -0.70605,0.04762c-2.48833,0.3242 -4.28718,2.27951 -4.28718,4.51851c0.0011,0.21681 0.01768,0.4326 0.04972,0.65042l0,0z" id="svg_105"/>
    <path d="m61.44621,40.30279c0.23314,0 0.46849,-0.0152 0.70716,-0.0466c2.49274,-0.3242 4.28828,-2.27951 4.28828,-4.52256c0,-0.21376 -0.01658,-0.43057 -0.04862,-0.64738c-0.35469,-2.28154 -2.48723,-3.93191 -4.93357,-3.93191c-0.23315,0 -0.46849,0.01621 -0.70605,0.0466c-2.49054,0.32318 -4.2905,2.28154 -4.2905,4.52155c0,0.21478 0.01768,0.43057 0.05193,0.64636c0.35137,2.28357 2.48391,3.93394 4.93136,3.93394z" id="svg_106"/>
    <path d="m93.28623,57.773c-0.0022,-0.01317 -0.52705,-3.398 -2.33253,-7.54266c-1.811,-4.14264 -4.90373,-9.05525 -10.08481,-12.09764l-0.51712,-0.30393l0.09614,0.55823l1.52371,8.80197l0.01768,0.03242c0.01437,0.02127 3.50819,6.77674 10.88258,10.80693l0.49612,0.27253l-0.08177,-0.52783l0,0z" id="svg_107"/>
    <path d="m15.36235,46.63984c-5.32914,5.5762 -6.22414,13.34074 -6.22635,18.00513c0,2.42744 0.2453,4.01904 0.24751,4.0312l0.07956,0.52277l0.39557,-0.38601c5.86393,-5.75653 7.17329,-13.13709 7.17992,-13.15837l0.00773,-0.03749l-1.27842,-9.3987l-0.40552,0.42146z" id="svg_108"/>
   </g>
  </g>
 </g>
</svg>