<svg width="100" height="100" xmlns="http://www.w3.org/2000/svg">
 <g>
  <title>Layer 1</title>
  <g id="svg_41">
   <g id="svg_42">
    <path id="svg_43" d="m89.5269,29.2246l-4.5337,-1.2601v-3.5634c0,-7.6939 -6.2581,-13.9544 -13.95271,-13.9544h-33.9198l5.9671,-4.68737c0.8602,-0.6762 1.0112,-1.92287 0.3343,-2.78311c-0.6762,-0.86024 -1.9244,-1.01123 -2.7834,-0.3343l-7.2658,5.70889v-4.14921c0,-1.09568 -0.8879,-1.98235 -1.9824,-1.98235s-1.9823,0.88667 -1.9823,1.98235v6.4037c-6.7556,0.9674 -11.9721,6.7757 -11.9721,13.7958v42.1015c-1.0673,0.2596 -2.0005,0.3886 -2.7844,0.3886c-2.0836,0 -2.17,-0.8531 -2.2373,-1.5384c-0.1033,-1.0506 -1.0692,-1.8365 -2.0695,-1.7821c-1.05623,0.0528 -1.8849,0.9238 -1.8849,1.9796c0,0.1483 0.18893,14.7824 16.3254,16.7674c2.0313,1.09589 4.3073,1.674 6.6063,1.674h15.753l-2.7065,10.2279c-0.2802,1.0594 0.3517,2.1436 1.4087,2.42361c0.1703,0.0452 0.3414,0.06699 0.509,0.06699c0.8777,0 1.6799,-0.5871 1.9146,-1.47649l2.9747,-11.24351h6.2566l2.6329,11.1909c0.2143,0.9126 1.0273,1.5294 1.9282,1.5294c0.1495,0 0.302,-0.0181 0.4555,-0.05441c1.0672,-0.2503 1.72561,-1.3176 1.475,-2.3849l-2.4212,-10.28101h9.4702c7.692,0 13.9513,-6.25929 13.9513,-13.9537v-30.8789l5.5366,-6.7672c0.4231,-0.518 0.5587,-1.2163 0.3563,-1.8545c-0.2036,-0.6383 -0.7146,-1.1314 -1.3597,-1.3113l0,0l0,0zm-22.9739,6.1381c-3.5684,0 -6.4722,-2.9037 -6.4722,-6.4709c0,-3.5665 2.9038,-6.4703 6.4722,-6.4703s6.4698,2.9038 6.4698,6.4703c0,3.5669 -2.9011,6.4709 -6.4698,6.4709z"/>
    <path id="svg_44" d="m66.55304,26.38471c1.3847,0 2.50484,1.12234 2.50484,2.50582c0,1.38421 -1.12014,2.50558 -2.50484,2.50558c-1.38348,0 -2.50509,-1.12161 -2.50509,-2.50558c-0.00001,-1.38348 1.1216,-2.50582 2.50509,-2.50582z"/>
   </g>
  </g>
 </g>
</svg>