<svg width="100" height="100" xmlns="http://www.w3.org/2000/svg">
 <g>
  <title>Layer 1</title>
  <g id="svg_141">
   <g id="svg_142" fill="#f0f">
    <path d="m30.7093,50.72785c0.68264,-2.05222 0.69104,-4.21776 0.02219,-6.09754c-0.73241,-2.05964 -2.23956,-3.60278 -4.13629,-4.23359c-0.60435,-0.20114 -1.22455,-0.30384 -1.84174,-0.30384c-3.02063,0 -5.70366,2.42278 -7.00128,6.3218c-0.68581,2.06189 -0.82878,4.05149 -0.41384,5.75566c0.52605,2.1538 1.90513,3.70327 3.8865,4.36262c0.63192,0.21062 1.29128,0.31651 1.96124,0.31651c1.62142,0 3.27042,-0.63733 4.64428,-1.79401c1.30728,-1.10363 2.30311,-2.60016 2.87893,-4.32761zm-4.55647,-1.51649c-0.61275,1.84269 -1.9866,2.83644 -2.96785,2.83644c-0.15549,0 -0.30051,-0.02313 -0.44458,-0.07082c-0.17879,-0.0593 -0.55141,-0.18419 -0.73764,-0.94401c-0.19575,-0.8012 -0.08464,-1.93176 0.30479,-3.10115c0.65618,-1.9717 1.74949,-3.03648 2.44592,-3.03648c0.1027,0 0.20858,0.019 0.32492,0.05706c1.06177,0.35344 1.76344,2.18867 1.07445,4.25896z" id="svg_143"/>
    <path d="m73.17165,55.05465c1.37357,1.15681 3.02257,1.7939 4.64342,1.7939h0.0006c0.66943,0 1.32986,-0.10659 1.96036,-0.31615c1.98012,-0.65984 3.36027,-2.20825 3.88658,-4.36261c0.41615,-1.70408 0.27185,-3.69438 -0.41373,-5.75593c-1.29813,-3.89916 -3.9806,-6.32177 -7.00137,-6.32177c-0.61733,0 -1.23646,0.10119 -1.84181,0.30358c-1.89688,0.6311 -3.40398,2.17411 -4.13627,4.23386c-0.66882,1.87953 -0.66043,4.04527 0.02216,6.09724c0.57482,1.72863 1.57056,3.22494 2.88007,4.32787l0,0zm2.74953,-10.10238c0.11676,-0.03892 0.22274,-0.05688 0.32513,-0.05688c0.93288,0 1.95617,1.56398 2.44596,3.03634c0.3898,1.16938 0.50056,2.29986 0.30477,3.101c-0.18502,0.76104 -0.55745,0.88498 -0.73769,0.94426c-0.1425,0.0473 -0.2886,0.07065 -0.44308,0.07065l0,0c-0.98138,0 -2.35495,-0.99395 -2.96808,-2.83635c-0.68919,-2.07053 0.01257,-3.90574 1.07298,-4.25902z" id="svg_144"/>
    <path d="m16.40606,86.96165c4.36057,3.48002 9.5563,6.16489 15.4433,7.98035c5.7588,1.77594 12.03423,2.67707 18.65124,2.67707c6.61816,0 12.89381,-0.90113 18.65154,-2.67707c5.88706,-1.81546 11.08255,-4.50033 15.44335,-7.98035c9.42337,-7.5211 14.4045,-18.27672 14.4045,-31.10467c0,-12.97165 -5.1416,-26.20916 -14.10632,-36.31716c-4.49313,-5.06555 -9.66885,-9.0695 -15.38407,-11.89962c-6.07867,-3.01017 -12.47468,-4.53631 -19.00901,-4.53631c-6.53571,0 -12.93171,1.52613 -19.00912,4.53631c-5.71444,2.83012 -10.89106,6.83407 -15.38396,11.89962c-8.96573,10.1092 -14.10751,23.3455 -14.10751,36.31716c0,12.82795 4.98203,23.58356 14.40612,31.10467l-0.00006,0zm45.47049,-34.89665c2.80103,1.96396 4.23328,4.75839 4.25961,8.30728c-0.0922,0.37962 -0.58858,1.46817 -1.48074,2.67109c-0.21436,0.29041 -0.45267,0.58739 -0.71433,0.88258c-0.98616,1.11551 -2.01544,1.88551 -2.94832,2.22501c-0.35507,0.12934 -0.69577,0.19759 -1.01431,0.19759l0,0c-0.388,0 -0.76283,-0.0952 -1.14484,-0.291l-2.40405,-1.23166l-0.94186,2.53038c-0.01497,0.04071 -1.39632,3.66863 -4.98592,6.76665c-3.55116,-3.07585 -4.97574,-6.73372 -4.98843,-6.76665l-0.94191,-2.53038l-2.40363,1.23166c-0.38213,0.1958 -0.75684,0.291 -1.14532,0.291c-0.31854,0 -0.6593,-0.06825 -1.01389,-0.19759c-0.93354,-0.3395 -1.96216,-1.10831 -2.94868,-2.22501c-0.26136,-0.29519 -0.49955,-0.59217 -0.71451,-0.88258c-0.89216,-1.2047 -1.38854,-2.29147 -1.48069,-2.67109c0.02557,-3.54889 1.45854,-6.34332 4.25914,-8.30728c2.74342,-1.92443 6.78449,-2.98484 11.37492,-2.98724c4.59313,0.0024 8.633,1.06281 11.37774,2.98724l0,0zm-0.95623,19.02278c-1.57056,3.28303 -4.39314,7.29417 -8.97909,8.00249c3.70337,-2.62918 5.92718,-5.91639 7.06963,-8.00369c0.31855,0.04311 0.64188,0.06527 0.96581,0.06527h0.0006c0.31375,-0.0006 0.6281,-0.02335 0.94305,-0.06407l0,0zm-11.85915,8.0037c-3.04838,-0.46405 -5.66899,-2.4292 -7.80484,-5.86251c-0.4489,-0.72211 -0.83624,-1.44723 -1.16862,-2.14059c0.31226,0.04191 0.62451,0.06287 0.93449,0.06287c0.32495,0 0.64667,-0.02216 0.96527,-0.06586c1.14544,2.0885 3.36914,5.37691 7.0737,8.0061l0,0zm-7.10525,-53.79177c2.9509,2.30333 4.88772,5.25524 6.16106,8.15806v10.90053c-11.0486,0.77181 -18.05434,6.92352 -18.05434,16.11038c0,1.80049 1.56751,4.46978 3.1222,6.31578c0.16203,0.19221 0.32698,0.37962 0.49326,0.56046l0.08479,0.36942c0.03802,0.16287 0.94833,4.03389 3.34147,7.93066c3.35931,5.46792 7.99089,8.35756 13.39504,8.35756c5.40446,0 10.03711,-2.88964 13.39559,-8.35756c2.39386,-3.89616 3.30399,-7.76778 3.34111,-7.93066l0.08442,-0.36823c0.16645,-0.18082 0.33171,-0.36705 0.49339,-0.56105c1.5538,-1.84538 3.12256,-4.51528 3.12256,-6.31637c0,-9.17668 -6.98998,-15.3248 -18.01864,-16.10679v-10.98435c1.27298,-2.87647 3.2028,-5.79605 6.12477,-8.07668c8.75036,-6.82994 36.06844,10.12386 29.02636,39.63641c-2.58668,10.83886 -7.36123,17.81567 -12.70641,22.3082c-2.36213,1.23046 -4.90987,2.27111 -7.62767,3.10939c-5.29968,1.63403 -11.09872,2.46272 -17.23666,2.46272c-6.13759,0 -11.93663,-0.8287 -17.23612,-2.46272c-2.71809,-0.83828 -5.2656,-1.87893 -7.62689,-3.10939c-5.34494,-4.49253 -10.1195,-11.46995 -12.70616,-22.3082c-7.04154,-29.51255 20.27599,-46.46653 29.02689,-39.63755l0,0z" id="svg_145"/>
   </g>
  </g>
 </g>
</svg>