<svg width="100" height="100" xmlns="http://www.w3.org/2000/svg">
 <g>
  <title>Layer 1</title>
  <g transform="rotate(16.149065017700195 48.140716552734375,51.90340042114257) " id="svg_123">
   <g id="svg_124" fill="#f0f">
    <circle cx="21.95832" cy="25.79876" r="2.62491" id="svg_125"/>
    <path d="m66.91817,16.83853c-12.69604,-3.2121 -22.84653,-2.4059 -36.28211,5.62117c-0.30788,-2.93278 -8.03024,-11.73431 -17.44753,-5.55452c-10.03622,-1.24104 -10.03622,9.10624 -10.03622,9.10624s-5.48469,9.64581 -5.55769,13.28006c-0.05078,2.43129 1.41561,3.08831 2.81852,3.50728c7.25261,-4.12939 13.83551,-3.14862 19.18371,-2.34877c2.78678,0.4158 5.2022,0.76811 7.00821,0.26027c0.62528,-0.18092 1.2823,0.19044 1.46004,0.81889c0.17774,0.62528 -0.19044,1.2823 -0.81572,1.46322c-2.29798,0.64433 -4.94193,0.25392 -8.00168,-0.20314c-4.78641,-0.71415 -10.63293,-1.54257 -16.91112,1.69809c5.96079,10.38536 22.47834,13.90851 34.47609,5.61483c2.61856,0.16505 6.05284,0.55545 9.75691,0.86015c0.68241,0.05396 0.0127,2.21229 -0.65067,4.36427c-0.2317,0.74907 -9.08719,2.60268 -9.26176,3.2597c-0.32057,1.23469 8.05246,0.22853 8.64917,1.08234c0.59354,0.86015 -1.07916,4.78958 -0.30787,6.64637c0.51419,1.23469 4.69754,-0.03492 5.86874,-2.93914c0.59036,-1.44735 -1.88219,-4.31348 -1.33309,-5.46564c1.65049,-3.43745 3.09148,-6.57972 3.34858,-6.57337c1.71714,0.05396 3.42793,0.05713 5.09111,-0.02222c3.46601,-0.1587 6.81142,-0.48245 9.90926,-0.75224c0.39357,-0.03492 1.05376,1.34895 1.75206,2.96135c0.3174,0.73637 -5.8021,1.85362 -5.48787,2.5773c0.64433,1.47908 6.0211,0.48245 8.02707,2.32972c2.00915,1.85362 2.07263,6.84317 3.55171,7.41449c0.81572,0.31423 4.23414,-2.13928 3.55173,-5.24981c-0.99664,-4.53884 -6.46229,-10.39171 -6.17662,-10.40441c3.79294,-0.17457 6.94473,0.00635 9.1094,1.12677c8.03025,4.15478 2.16468,35.06329 -17.91093,36.61221c-10.93447,0.84111 -14.58775,-7.90646 -13.22928,-12.78491c1.34261,-4.82133 7.36053,-7.44306 11.53435,-6.81777c4.16431,0.60941 4.93876,4.47536 3.08832,7.09391c-0.2444,0.34596 -0.52689,0.66653 -0.82841,0.96489c-0.71733,-0.72684 -1.70763,-1.17754 -2.80584,-1.17754c-2.18054,0 -3.94212,1.76792 -3.94212,3.94211c0,2.18055 1.76475,3.93896 3.94212,3.93896c1.9679,0 3.58664,-1.44418 3.88182,-3.33907c1.06012,-0.26344 2.10754,-0.77763 2.99625,-1.70126c3.54855,-3.70725 2.77727,-10.34728 -3.94846,-12.62621c-7.52558,-2.54556 -18.07281,2.18372 -18.38387,10.21396c-0.30788,8.02708 7.059,17.44436 19.74552,16.72069c18.83775,-1.08551 32.38759,-20.64375 31.62901,-38.69753c-0.65385,-15.29555 -8.82375,-31.20051 -31.06086,-36.82168zm-47.35305,17.35866c-4.22143,0 -7.64302,-3.42158 -7.64302,-7.64302c0,-4.22143 3.42158,-7.64301 7.64302,-7.64301c4.21826,0 7.63984,3.42158 7.63984,7.64301c0.00317,4.22143 -3.41841,7.64302 -7.63984,7.64302z" id="svg_126"/>
   </g>
  </g>
 </g>
</svg>