<svg width="100" height="100" xmlns="http://www.w3.org/2000/svg">
 <g>
  <title>Layer 1</title>
  <g id="svg_59">
   <g id="svg_60" fill="#f0f">
    <path d="m93.82281,90.80751l-15.46114,-5.40203c1.37286,-1.76025 2.5052,-3.6567 3.37787,-5.6468l12.08327,-4.21861c1.18768,-0.41293 1.80919,-1.70702 1.39201,-2.88832s-1.7049,-1.80707 -2.88833,-1.38776l-8.93314,3.12245c0.25329,-1.38137 0.4257,-2.79041 0.4257,-4.22925c0,-10.01228 -6.33004,-18.82198 -15.91875,-23.97285c2.59459,-3.19695 5.17429,-6.89621 7.58583,-10.99562c9.08214,-15.41644 12.31527,-30.3412 7.22825,-33.34446c-5.09341,-2.999 -16.57858,7.06223 -25.66071,22.47867c-3.42469,5.81495 -6.00226,11.54903 -7.63691,16.6105c-1.62828,-5.06148 -4.20797,-10.79342 -7.63266,-16.6105c-9.08214,-15.42069 -20.56944,-25.48193 -25.66284,-22.48718c-5.08702,3.00326 -1.85389,17.92802 7.22825,33.34446c2.4158,4.09941 4.99763,7.79868 7.58796,10.99563c-9.58871,5.15087 -15.91663,13.96057 -15.91663,23.97284c0,1.44523 0.17241,2.84789 0.42569,4.22926l-8.93315,-3.12246c-1.18768,-0.41293 -2.47753,0.21072 -2.88832,1.38776c-0.41292,1.18768 0.20859,2.4754 1.38988,2.88833l12.08327,4.21648c0.87267,1.99649 2.00714,3.88869 3.37787,5.64893l-15.46114,5.40629c-1.18342,0.41292 -1.80493,1.70702 -1.38988,2.88619c0.32353,0.93226 1.20258,1.52184 2.13697,1.52184c0.24903,0 0.50232,-0.04469 0.75348,-0.13197l17.30012,-6.04482c6.28322,5.81496 15.38664,9.58232 25.60112,9.83987c10.21873,-0.25755 19.32215,-4.02492 25.60112,-9.83987l17.30225,6.04482c0.2469,0.08302 0.50019,0.13197 0.75347,0.13197c0.93227,0 1.81345,-0.58319 2.13911,-1.52184c0.41505,-1.17705 -0.20646,-2.46902 -1.38988,-2.88194zm-55.46129,-17.9855c0,-2.18593 1.77726,-3.96319 3.96958,-3.96319c2.18806,0 3.96532,1.77726 3.96532,3.96319c0,2.19445 -1.77726,3.96746 -3.96532,3.96746c-2.19444,0.00212 -3.96958,-1.77088 -3.96958,-3.96746zm16.02943,9.97823c0,0 -2.39878,2.86491 -3.24165,3.77377c-0.22561,0.24689 -0.70026,0.928 -1.63678,0.928c-1.0621,0 -1.56868,-0.65556 -1.8177,-0.928c-0.84287,-0.91524 -3.24591,-3.77377 -3.24591,-3.77377c-0.30011,-0.34907 -0.36609,-0.84287 -0.17666,-1.25579c0.19156,-0.41718 0.60874,-0.68111 1.06849,-0.68111l4.07813,0.00426l4.08026,-0.00426c0.46188,0 0.87693,0.26392 1.06849,0.68111c0.19369,0.41505 0.12345,0.90672 -0.17666,1.25579zm2.11995,-6.00864c-2.19019,0 -3.96532,-1.773 -3.96532,-3.96745c0,-2.18592 1.77514,-3.96319 3.96532,-3.96319c2.18806,0 3.96532,1.77727 3.96532,3.96319c0.00639,2.19445 -1.77301,3.96745 -3.96532,3.96745z" id="svg_61"/>
   </g>
  </g>
 </g>
</svg>