<?xml version="1.0" encoding="utf-8"?>
<!-- Generator: Adobe Illustrator 19.2.0, SVG Export Plug-In . SVG Version: 6.00 Build 0)  -->
<svg version="1.1" id="Layer_1" xmlns="http://www.w3.org/2000/svg" xmlns:xlink="http://www.w3.org/1999/xlink" x="0px" y="0px"
	 viewBox="0 0 200 200" style="enable-background:new 0 0 200 200;" xml:space="preserve">
<style type="text/css">
	.st0{fill:#FCEE21;}
	.st1{fill:#FF7BAC;}
	.st2{fill:#FDF57A;stroke:#FF7BAC;stroke-width:3;stroke-miterlimit:10;}
	.st3{fill:#B2A1A1;}
</style>
<path class="st0" d="M161.1,200H35.5C16,200,0,184,0,164.5V38.9C0,19.3,16,3.4,35.5,3.4h125.7c19.5,0,35.5,16,35.5,35.5v125.7
	C196.6,184,180.7,200,161.1,200z"/>
<path class="st1" d="M37,113c0,0,0,0.1,0,0.1c7,21.9,26.1,39.9,42.8,40.2c16.7,0.3,24.6-17.2,17.6-39.1c0,0,0-0.1,0-0.1L37,113z"/>
<path class="st1" d="M116.7,130.6C116.7,130.6,116.7,130.7,116.7,130.6c4.2,10.4,19.7,16.7,34.7,14c15-2.7,23.8-13.2,19.7-23.6
	c0,0,0,0,0-0.1L116.7,130.6z"/>
<path class="st1" d="M37,77.5c0,0,0-0.1,0-0.1c7.1-22.6,42.1-40.1,78.2-39.1c36.1,1,59.7,20.1,52.6,42.7c0,0,0,0.1,0,0.1L37,77.5z"
	/>
<path class="st2" d="M186.4,99.3c-0.2,21.1-41.3,37.6-91.9,36.9c-50.6-0.8-91.4-18.6-91.2-39.7c0.2-21.1,41.3-37.6,91.9-36.9
	C145.7,60.4,186.6,78.2,186.4,99.3z"/>
<path class="st1" d="M189.1,101.5c0-14.3,4.3-26.1,9.7-27.5l-0.1-0.1c-4.3-8.4-11.3-8.4-15.6,0l-6.4,12.4c-4.3,8.4-4.3,22,0,30.4
	l6.4,12.4c4.3,8.4,11.3,8.4,15.6,0l0.1-0.1C193.3,127.6,189.1,115.9,189.1,101.5z"/>
<ellipse class="st3" cx="48.2" cy="83.2" rx="4.9" ry="6.4"/>
<ellipse cx="22" cy="89.6" rx="4.9" ry="6.4"/>
<ellipse class="st3" cx="68.5" cy="87.5" rx="4.9" ry="6.4"/>
<ellipse class="st3" cx="43.3" cy="106.6" rx="4.9" ry="6.4"/>
<ellipse class="st3" cx="68.5" cy="113" rx="4.9" ry="6.4"/>
<ellipse class="st3" cx="88.1" cy="92.9" rx="4.9" ry="6.4"/>
<ellipse class="st3" cx="88.1" cy="70.5" rx="4.9" ry="6.4"/>
<ellipse class="st3" cx="97.7" cy="113" rx="4.9" ry="6.4"/>
<ellipse class="st3" cx="127.6" cy="119.3" rx="4.9" ry="6.4"/>
<ellipse class="st3" cx="108.7" cy="80.4" rx="4.9" ry="6.4"/>
<ellipse class="st3" cx="142.3" cy="101.1" rx="4.9" ry="6.4"/>
<ellipse class="st3" cx="113.6" cy="99.2" rx="4.9" ry="6.4"/>
<ellipse class="st3" cx="154.2" cy="93.9" rx="4.9" ry="6.4"/>
<ellipse class="st3" cx="129.3" cy="86.8" rx="4.9" ry="6.4"/>
</svg>
