<?xml version="1.0" encoding="utf-8"?>
<!-- Generator: Adobe Illustrator 19.2.0, SVG Export Plug-In . SVG Version: 6.00 Build 0)  -->
<svg version="1.1" id="Layer_1" xmlns="http://www.w3.org/2000/svg" xmlns:xlink="http://www.w3.org/1999/xlink" x="0px" y="0px"
	 viewBox="0 0 200 200" style="enable-background:new 0 0 200 200;" xml:space="preserve">
<style type="text/css">
	.st0{fill:#FCEE21;}
	.st1{fill:#FFA33B;stroke:#000000;stroke-miterlimit:10;}
	.st2{fill:#ED1C24;}
	.st3{fill:#FBE9CC;stroke:#42210B;stroke-width:6;stroke-miterlimit:10;}
	.st4{fill:#B16D00;}
	.st5{fill:#FBE9CC;stroke:#42210B;stroke-width:2;stroke-miterlimit:10;}
</style>
<path class="st0" d="M160,198.5H40c-21.4,0-39-17.5-39-39v-119c0-21.4,17.5-39,39-39h120c21.4,0,39,17.5,39,39v119
	C199,181,181.5,198.5,160,198.5z"/>
<path class="st1" d="M533.1,41.5"/>
<g>
	<path class="st2" d="M161.4,17.7l-35.2,47.2c-23.3-0.3-65.9,4.3-85.9,18.9C15.5,102,9.3,148.2,10.1,165.1
		c16.1,5.1,62.3,11,86.3-8.4c19.3-15.6,34.7-55.6,40.4-78.2l54.6-21.8L161.4,17.7z"/>
	
		<ellipse transform="matrix(0.7927 -0.6096 0.6096 0.7927 -76.262 52.1001)" class="st3" cx="38.5" cy="138.2" rx="15.3" ry="15.3"/>
	
		<ellipse transform="matrix(0.7927 -0.6096 0.6096 0.7927 -76.2858 51.9817)" class="st4" cx="38.3" cy="138.2" rx="11.7" ry="11.7"/>
	<g>
		<polygon class="st5" points="72.6,152 66.5,113 81.5,147.5 		"/>
		<polygon class="st5" points="106.5,126.1 71.8,108.5 112.1,118.2 		"/>
		<polygon class="st5" points="96.1,136.6 70,110.2 103.2,129.5 		"/>
		<polygon class="st5" points="85.9,144.2 67.4,112 93.9,138.1 		"/>
	</g>
</g>
</svg>
