<?xml version="1.0" encoding="utf-8"?>
<!-- Generator: Adobe Illustrator 19.2.0, SVG Export Plug-In . SVG Version: 6.00 Build 0)  -->
<svg version="1.1" id="Layer_1" xmlns="http://www.w3.org/2000/svg" xmlns:xlink="http://www.w3.org/1999/xlink" x="0px" y="0px"
	 viewBox="0 0 200 200" style="enable-background:new 0 0 200 200;" xml:space="preserve">
<style type="text/css">
	.st0{fill:#FCEE21;}
	.st1{fill:#F7931E;}
	.st2{fill:#D4145A;}
	.st3{fill:#99DDD8;}
	.st4{fill:#EEA1BD;}
</style>
<path class="st0" d="M160.7,196.1H39.3c-19.5,0-35.5-16-35.5-35.5V39.3c0-19.5,16-35.5,35.5-35.5h121.3c19.5,0,35.5,16,35.5,35.5
	v121.3C196.1,180.2,180.2,196.1,160.7,196.1z"/>
<g>
	<path class="st1" d="M67.4,140.6c7.6,6,8.1,13.2,1,16.1c-7.1,2.9-19.1,0.5-26.7-5.5s-8.1-13.2-1-16.1
		C47.8,132.1,59.7,134.6,67.4,140.6z"/>
	<path class="st1" d="M133.7,137.5c11.3,4.3,10.4,11.5-2.1,16.1s-31.8,4.9-43.1,0.6s-10.4-11.5,2.1-16.1
		C103.1,133.5,122.4,133.2,133.7,137.5z"/>
	<polygon class="st1" points="197.1,134.1 146.4,104.8 197.1,75.6 	"/>
	<g>
		<path class="st1" d="M90.9,46.3C90.9,46.3,90.9,46.3,90.9,46.3C90.9,46.3,90.9,46.3,90.9,46.3L90.9,46.3z"/>
		<path class="st1" d="M150.6,64c-6.5-2.3-9.5-9.7-7.5-17.3c-0.9,1.8-2,3.6-3.3,5.4c-6.5,8.7-15.7,13.1-20.7,9.9
			c-3.1-2-3.8-6.6-2.2-11.9c-3,3.4-7,6.5-11.5,8.4c-9.2,3.9-16.6,1.6-16.6-5.3c0-1.7,0.4-3.4,1.2-5.2c-4.7,8.7-12.3,13.9-17.4,11.8
			c-4-1.6-5.4-6.3-4.2-13.8h-0.1L36.1,77h109.1l14-13.3C156.3,64.6,153.3,65,150.6,64z"/>
	</g>
	<ellipse class="st2" cx="86.4" cy="106.6" rx="84.4" ry="42"/>
	<circle class="st3" cx="24.2" cy="99.1" r="11.9"/>
	<circle class="st3" cx="56.7" cy="99.1" r="11.9"/>
	<circle cx="28.1" cy="103" r="3.9"/>
	<circle cx="58.4" cy="103" r="3.9"/>
	<path class="st4" d="M52.2,122.9c0,3.4-4.5,6.1-10,6.1s-10-2.7-10-6.1"/>
</g>
</svg>
