<svg width="100" height="100" xmlns="http://www.w3.org/2000/svg">
 <g>
  <title>Layer 1</title>
  <g id="svg_18">
   <g id="svg_19">
    <path d="m7.67962,79.459c1.37156,-0.9334 3.08018,-1.9682 4.91468,-2.7952c-3.29146,2.5714 -5.67256,6.1318 -6.43539,10.7112c-0.99943,6.0064 8.69409,8.5855 9.70179,2.5317c0.9675,-5.8111 5.4646,-8.1699 10.7549,-8.6348c2.4279,5.9334 8.4996,10.146 15.6241,10.146h16.3486c6.9921,0 12.9798,-4.0539 15.495,-9.8127c0.3806,0.2302 0.7193,0.5191 1.0949,0.9032c0.2531,0.2587 0.7428,1.4602 1.0263,2.5397c0.389,1.4763 0.3939,3.0207 0.4073,4.584c0.0553,6.138 10.1161,6.1445 10.0606,0c-0.0337,-3.6824 -0.5147,-7.2048 -2.0925,-10.39201c2.31219,1.8635 3.3586,5.3507 4.15839,7.8888c1.85281,5.8697 11.5647,3.3667 9.70181,-2.5317c-1.7808,-5.6381 -4.368,-10.7365 -9.5946,-14.1555c-3.8883,-2.5444 -8.8265,-2.7858 -13.48949,-2.2968v-37.0523c4.38139,-0.6128 12.6194,-3.0428 9.0126,-12.6904c-4.3411,-11.61431 -3.0769,-0.8651 -9.2121,2.8381c-1.18871,-7.6635 -8.1439,-13.55239 -16.568,-13.55239h-16.3486c-9.2608,0 -16.7677,7.10639 -16.7677,15.87299v0.9062c-3.1221,-1.1983 -6.8832,-4.0396 -7.1262,-10.8269c-0.4041,-11.26821 -18.26164,28.3601 7.1262,23.0317v30.2951c-7.4113,-2.8667 -16.263,-0.22871 -22.86956,4.2667c-5.21663,3.5506 -0.20318,11.8173 5.07699,8.2253l0,0l-0.00001,0zm57.92898,-23.4697h-4.6714l-4.866,5.6666l-5.369,-5.6666h-4.7251l-3.7661,8.0476c0,0 -1.2241,-5.2937 -2.0221,-8.0476h-4.4501v-2.8254h29.8665v2.8254h0.0033l0,0l0,0zm-14.3212,-39.7697c9.742,0 17.6413,7.4762 17.6413,16.6999s-7.8976,16.7 -17.6413,16.7c-9.3027,0 -16.9068,-6.8223 -17.576,-15.4666c-0.0317,-0.408 -0.0654,-0.8174 -0.0654,-1.2334c0,-2.5159 0.6053,-4.8935 1.6583,-7.0333c2.8053,-5.7032 8.8969,-9.6666 15.9831,-9.6666l0,0l0,0z" fill="#007fff" id="svg_20"/>
    <path d="m48.3547,35.1259c0.2046,6.4921 1.281,11.4508 2.5822,11.4508c1.3012,0 2.376,-4.9572 2.5822,-11.4508c6.3467,-0.2015 11.1473,-1.1269 11.1473,-2.2396s-4.8006,-2.0396 -11.1473,-2.2395c-0.2046,-6.4921 -1.281,-11.4509 -2.5822,-11.4509s-2.3759,4.9573 -2.5822,11.4509c-3.7089,0.1175 -6.8865,0.4825 -8.8903,0.9888c-1.2693,0.3207 -2.0558,0.6985 -2.2117,1.1031c-0.0184,0.0492 -0.0452,0.0984 -0.0452,0.1476c0.0016,1.1127 4.8005,2.0397 11.1472,2.2396l0,0z" fill="#007fff" id="svg_21"/>
   </g>
  </g>
 </g>
</svg>