<svg width="100" height="100" xmlns="http://www.w3.org/2000/svg">
 <g>
  <title>Layer 1</title>
  <g id="svg_36">
   <g id="svg_37">
    <path d="m54.86659,5c-20.92716,0 -38.38455,11.26817 -42.40484,26.24123c-2.93541,5.85844 -4.8017,14.59765 -4.8017,24.37521c0,5.09329 0.52037,9.88469 1.42064,14.15503c-1.91959,0.29561 -3.82673,0.67258 -5.71093,1.08965c-3.33476,0.73646 -2.43995,8.83808 0.89677,8.10162c1.82194,-0.40252 4.17123,-4.25128 6.01807,-4.52605c0.43321,1.39468 0.90201,2.72392 1.42413,3.93348c0.00524,0.07822 0,0.15172 0.01245,0.23173c0.89153,5.34564 -5.98246,16.31349 2.5339,17.7353c3.35791,0.56075 9.24273,-3.81358 5.86887,-4.37589c-2.0262,-0.33865 -3.07021,-4.45097 -3.13072,-6.00231c1.32473,1.02243 2.73815,1.59281 4.20683,1.59281c1.37978,0 2.7115,-0.49374 3.96698,-1.3996c0.89852,1.44913 1.46847,7.90507 2.84999,9.18635c2.44695,2.27188 4.99351,2.61701 8.21292,2.59618c3.43438,-0.02241 5.02365,-10.40533 1.58753,-10.38313c-2.6405,0.01749 -4.77855,0.33079 -6.55067,-1.69501c-1.03702,-1.18536 -1.7918,-2.45721 -2.49129,-3.76877c1.35312,-2.15847 2.53214,-4.87925 3.47523,-8.01849c3.24781,0.60556 5.38935,4.50365 8.64087,5.09329c3.35442,0.60712 5.88482,-7.29166 2.51795,-7.90193c-3.33672,-0.60399 -6.66449,-1.2398 -9.9975,-1.86129c0.1883,-0.92179 0.34975,-1.87878 0.49896,-2.84696c6.20987,2.61209 13.35192,4.10584 20.9573,4.10584c1.37082,0 2.72395,-0.05424 4.06114,-0.14859c-0.10836,-0.07037 -0.21497,-0.14544 -0.32135,-0.21719c4.00608,-0.23801 8.01936,-0.92023 10.97772,-2.67283c4.7342,-2.80706 0.62872,-9.89902 -4.16228,-7.05835c-3.37561,2.00182 -7.33385,2.27345 -11.26543,2.21272c0,0 0.82927,-1.59124 1.85383,-3.55315c1.02282,-1.96191 -0.54876,-3.35975 -3.51783,-3.1921c-1.09732,0.0623 -2.20555,0.1134 -3.19276,0.14387c-0.93413,-4.68113 -0.50443,-9.82061 1.54143,-14.83882c2.38316,-5.84566 6.55439,-10.54605 11.55663,-13.62141l1.25548,2.63607c1.54493,3.24477 4.54589,3.48279 6.69989,0.53362l5.23839,-7.16862c2.6582,-0.06702 5.32731,0.27792 7.91451,1.13112c0.07275,0.02398 0.14026,0.05916 0.213,0.08314c-0.0924,0.83079 -0.19705,1.77658 -0.31065,2.79901c-0.35149,3.16969 2.04738,4.7114 5.35921,3.44289l3.15191,-1.2062c3.00095,2.94761 5.0645,6.726 6.03403,10.90712c0.1208,-1.00336 0.1918,-2.01617 0.1918,-3.04351c-0.00175,-18.1288 -19.37873,-32.82708 -43.28041,-32.82708zm-17.63326,31.2211c-2.67786,0 -5.03611,-1.23824 -6.43708,-3.11859c-0.35346,-0.83708 -0.72811,-1.61835 -1.11872,-2.35973c-0.13676,-0.52714 -0.2272,-1.07195 -0.2272,-1.63762c0,-3.93013 3.48396,-7.11752 7.78322,-7.11752s7.78321,3.18562 7.78321,7.11752c-0.00021,3.93013 -3.48417,7.11594 -7.78343,7.11594z" fill="#00007f" id="svg_38"/>
   </g>
  </g>
 </g>
</svg>