<svg width="100" height="100" xmlns="http://www.w3.org/2000/svg">
 <g>
  <title>Layer 1</title>
  <g id="svg_18">
   <g id="svg_19" fill="#f00">
    <path d="m10.45308,8.16953c-5.22084,0 -9.45308,4.56822 -9.45308,10.16188s4.24954,10.16179 9.45308,10.16179c3.62515,0 6.88608,-2.2002 8.46447,-5.64964c4.04135,0.78314 5.86262,4.69867 6.62582,7.2718c-2.86194,4.99694 -4.37097,10.62798 -4.37097,16.3148l0,0v38.48462v0.09252l0.0173,0.11268c0,0 0.13882,0.57804 0.13882,0.81987c0,4.75436 3.59038,8.20427 8.53375,8.20427c2.30692,0 4.45772,-1.08189 6.0708,-2.98362c1.59578,1.92098 3.88531,3.03949 6.33097,3.03949c2.72321,0 6.15755,-0.37283 7.75325,-3.07614c1.47434,2.62819 4.64852,3.03857 7.45848,3.03857c2.67114,0 5.15165,-1.37959 6.74717,-3.65416c1.57848,2.20039 4.02396,3.50486 6.62574,3.50486c4.49232,0 6.95604,-2.90851 6.95604,-8.16671c0,-0.33528 -0.13891,-0.78231 -0.26077,-1.09927v-38.29829c0,-7.66332 -1.56084,-13.70448 -4.78735,-18.45912c1.43983,-2.92736 4.40557,-4.60541 8.23865,-4.624c1.666,3.0951 4.99545,5.14607 8.43056,5.14607c5.2724,0 9.57417,-4.56812 9.57417,-10.16179s-4.19696,-10.16179 -9.3492,-10.16179c-4.05891,0 -7.64912,2.79683 -8.94953,6.88018c-5.20397,0.22379 -9.60963,2.62901 -12.52338,6.88018c-5.08236,-4.28846 -11.41333,-6.65639 -17.90042,-6.65639c-7.0768,0 -13.84135,2.75945 -19.16633,7.81246c-2.63646,-4.77324 -6.90338,-7.83115 -11.89874,-8.46506c-1.38768,-3.89693 -4.85663,-6.47006 -8.75933,-6.47006l0,0zm48.5319,62.83576h-15.90565c-1.11013,0 -1.99468,-0.97011 -1.99468,-2.1445v-1.04431c0,-1.19363 0.90194,-2.14451 1.99468,-2.14451h15.90565c1.1097,0 1.99468,0.97011 1.99468,2.14451v1.04431c0,1.17439 -0.90211,2.1445 -1.99468,2.1445zm4.3708,-12.43647c-4.47528,0 -8.09999,-3.89712 -8.09999,-8.70772c0,-4.81052 3.62472,-8.70745 8.09999,-8.70745s8.1,3.89693 8.1,8.70745c-0.01721,4.81042 -3.64253,8.70772 -8.1,8.70772zm-13.72,-16.40842c-4.47511,0 -8.10026,-3.89693 -8.10026,-8.70754c0,-4.81052 3.62515,-8.70745 8.10026,-8.70745c4.47485,0 8.10017,3.89693 8.10017,8.70745c0,4.81061 -3.62532,8.70754 -8.10017,8.70754zm-12.17629,-0.98825c4.47502,0 8.10017,3.89693 8.10017,8.70745s-3.62514,8.70754 -8.10017,8.70754c-4.47511,0 -8.10017,-3.89702 -8.10017,-8.70754s3.62506,-8.70745 8.10017,-8.70745z" id="svg_20"/>
    <circle  cx="49.63576" cy="33.35967" r="4.85663" id="svg_21"/>
    <circle  cx="37.45947" cy="49.76773" r="4.85663" id="svg_22"/>
    <circle  cx="63.35575" cy="49.76773" r="4.85663" id="svg_23"/>
   </g>
  </g>
 </g>
</svg>