<svg width="100" height="100" xmlns="http://www.w3.org/2000/svg">
 <g>
  <title>Layer 1</title>
  <g id="svg_53">
   <g id="svg_54">
    <path id="svg_55" fill="#a509a5" d="m87.5474,29.3295c-1.9642,0 -3.8048,0.6157 -5.4034,1.6829l-0.97649,-8.8963c0,-10.2706 -6.99551,-18.5961 -15.6254,-18.5961h-29.4272c-8.6299,0 -15.6255,8.3255 -15.6255,18.5961l-1.0563,9.6215c-1.8015,-1.512 -3.9939,-2.4083 -6.3658,-2.4083c-6.11245,0.0002 -11.06733,5.8968 -11.06733,13.1716v3.7192c0,7.2747 4.95489,13.1716 11.06753,13.1716c1.1876,0 2.3283,-0.2288 3.4001,-0.6397l-0.3937,3.589c-2.972,1.2423 -5.7001,3.3994 -7.53759,6.4883c-2.92974,4.9262 -2.92974,10.4751 -2.6641,16.2845c0.16417,3.5778 4.85169,3.5966 4.68769,0c-0.1734,-3.7695 -0.475,-7.6968 0.8375,-11.2469c0.858,-2.32069 2.6595,-4.279 4.6908,-5.54919c1.3219,8.251 7.2204,14.5532 14.4332,15.0478c-0.025,0.2622 -0.0673,0.5189 -0.0673,0.7904v7.1261c0,3.7844 2.5782,6.8527 5.758,6.8527s5.758,-3.0683 5.758,-6.8527v-7.1261c0,-0.2548 -0.0405,-0.4946 -0.0625,-0.7419h15.1722c-0.0219,0.2473 -0.0625,0.4873 -0.0625,0.7419v7.1261c0,3.7844 2.5782,6.8527 5.758,6.8527s5.758,-3.0683 5.758,-6.8527v-7.1261c0,-0.2548 -0.0405,-0.4946 -0.0625,-0.7419h1.7595c7.7847,0 14.2222,-6.7838 15.4113,-15.6504c4.2563,3.4088 4.5049,10.784 4.34859,17.0414c-0.0905,3.6002 4.5969,3.589 4.68771,0c0.23579,-9.3761 -1.2267,-20.1005 -9.1941,-23.3846l-0.2547,-2.3227c0.7485,0.1897 1.5234,0.2956 2.3204,0.2956c6.1126,0 11.0675,-5.8969 11.0675,-13.1716v-3.7188c-0.0006,-7.2768 -4.95699,-13.1734 -11.0696,-13.1734l0,0l0,0zm-33.4321,-21.95628c0.6858,-0.61357 1.6687,-0.4445 2.186,0.3793l2.9407,4.68988c0.3797,0.6044 0.3969,1.3909 0.1078,2.012c-0.1047,0.2231 -0.2437,0.4278 -0.4265,0.5914c-0.2797,0.2492 -0.6078,0.3681 -0.9329,0.3681c-0.2437,0 -0.4829,-0.0707 -0.7016,-0.2008c-0.2109,-0.1266 -0.4016,-0.3068 -0.5515,-0.5468l-2.9407,-4.68987c-0.5156,-0.8236 -0.3736,-1.98965 0.3187,-2.60322l0,0l0,0.00001zm-12.7565,4.75868l4.6877,-4.68982c0.6626,-0.65841 1.6453,-0.5598 2.2016,0.22695c0.5548,0.78653 0.4704,1.96014 -0.1907,2.62017l-4.5485,4.5523l-0.139,0.1377c-0.2937,0.292 -0.6499,0.4352 -1.0048,0.4352c-0.4454,0 -0.8875,-0.2251 -1.1968,-0.6621c-0.1515,-0.2139 -0.2453,-0.4594 -0.3031,-0.7122c-0.1534,-0.6771 0.0138,-1.4284 0.4936,-1.9082l0,0zm-28.2913,40.7512c-3.9547,0 -7.16109,-3.8159 -7.16109,-8.5225s3.20638,-8.5225 7.16109,-8.5225c2.2595,0 4.2501,1.2702 5.5627,3.2152c0.9844,1.4598 1.5986,3.2895 1.5986,5.3073c0,2.8173 -1.1626,5.2961 -2.9329,6.847c-1.1878,1.0413 -2.641,1.6755 -4.2284,1.6755l0,0zm62.5016,2.797c0,6.3375 -2.6689,11.9257 -6.7346,15.2822l-4.5298,-13.8819l-12.9598,15.4234l-12.9596,-15.4234l-4.7329,14.5067c-4.5283,-3.2561 -7.5642,-9.153 -7.5642,-15.9089v-16.9763c0,-4.6528 1.4454,-8.8963 3.8188,-12.1563l8.1784,13.0675l9.2892,-19.5073h6.9861l9.2893,19.5073l8.1424,-13.0099c2.3469,3.2543 3.7751,7.4756 3.7751,12.1005v16.9764h0.0016l0,0l0,0zm11.9783,-2.797c-1.1157,0 -2.158,-0.3292 -3.0986,-0.8702c-2.3969,-1.378 -4.064,-4.2733 -4.064,-7.6523c0,-2.5868 0.989,-4.8758 2.5172,-6.4379c1.2531,-1.2814 2.8626,-2.0846 4.6454,-2.0846c3.9547,0 7.161,3.8159 7.161,8.5225s-3.2046,8.5225 -7.161,8.5225l0,0z"/>
    <circle id="svg_56" fill="#a509a5" r="4.55694" cy="44.36061" cx="13.0675"/>
    <path id="svg_57" fill="#a509a5" d="m87.5474,38.9362c-1.8704,0 -3.4736,1.3426 -4.1752,3.2597c-0.2438,0.664 -0.3812,1.3928 -0.3812,2.1629c0,1.2626 0.3766,2.4083 0.98441,3.3305c0.8344,1.2644 2.1156,2.0939 3.572,2.0939c2.5172,0 4.5579,-2.4286 4.5579,-5.4244c0,-2.9958 -2.0407,-5.4226 -4.5579,-5.4226l0,0z"/>
   </g>
  </g>
 </g>
</svg>