<svg width="100" height="100" xmlns="http://www.w3.org/2000/svg">
 <g>
  <title>Layer 1</title>
  <g id="svg_1">
   <g id="svg_2">
    <path id="svg_3" fill="#ff0000" d="m95.1885,83.6069c-1.2232,-0.88831 -1.1839,-2.5574 -1.1916,-4.0424c0,-0.0579 -0.0126,-0.1074 -0.0157,-0.1636c0.1731,-13.1432 2.0874,-30.1874 -3.4113,-43.5164c0.0047,-0.0273 0.0142,-0.0512 0.0173,-0.0801c0.55891,-4.6408 1.2498,-9.2543 1.5742,-13.924c0.1354,-1.9471 0.1559,-5.6535 -1.837,-6.7003c-2.60381,-1.3673 -5.0547,-0.4229 -7.6615,0.5472c-3.8158,1.4202 -8.1132,1.5651 -12.18391,1.7902c-5.65289,-1.9232 -12.5839,-3.0245 -21.1456,-3.0245c-8.3242,0 -15.1244,1.0145 -20.6969,2.808c-2.2873,-0.7825 -4.7272,-1.0672 -6.9074,-2.1754c-2.5675,-1.3042 -4.9948,-2.849 -7.6473,-3.952c-0.9902,-0.4126 -2.1535,0.2676 -2.6667,1.1747c-1.43091,2.5268 -1.1209,5.7745 -0.9493,8.6031c0.1888,3.1115 0.1795,6.2009 0.3558,9.2935c-8.94912,13.7244 -6.3942,33.7247 -6.14245,48.7654c-0.08191,0.2523 -0.14001,0.5252 -0.14486,0.8371c-0.01568,0.8507 -0.17157,1.6641 -0.47387,2.75c-0.14796,0.5285 -0.30851,0.9155 -0.57149,1.4099c-0.0457,0.0851 -0.07398,0.1415 -0.09121,0.1824c-0.00465,0.0034 -0.0095,0.0069 -0.01414,0.0103l0,0c-2.9736,0.7127 -1.7127,5.6434 1.25626,4.9323c2.97515,-0.7127 4.23761,-4.8385 4.54455,-8.0063h5.48901c-0.1133,2.351 -1.4058,4.801 -2.1802,6.8505c-0.488,1.2922 0.5194,2.8097 1.6498,3.1455c1.3538,0.4039 2.4178,-0.498 2.9043,-1.7868c1.0263,-2.716 2.155,-5.36359 2.2983,-8.2092h6.6178c-0.0347,0.7945 -0.0709,1.5873 -0.0819,2.3819c-0.0236,1.6964 -0.1102,3.97581 1.124,5.25111c2.0684,2.14149 5.1458,-0.9225 3.6756,-3.19341c-0.0046,-0.1398 -0.0583,-0.6086 -0.0568,-0.58469c-0.0393,-0.7536 -0.0205,-1.5106 -0.0046,-2.26421c0.011,-0.5302 0.0378,-1.0605 0.0629,-1.5924h7.5842c0.0016,0.0342 0.0031,0.0562 0.0047,0.0938c0.0614,1.00249 0.0079,2.0186 -0.0142,3.0228c-0.0393,1.8823 0.0206,3.6724 0.71,5.42c0.5052,1.28381 2.2259,1.5548 3.2302,0.91721c1.2121,-0.76891 1.3521,-2.2164 0.8468,-3.4985c-0.4644,-1.1781 -0.0172,-3.9453 -0.0377,-5.4609c-0.0016,-0.1586 -0.0111,-0.3274 -0.0173,-0.4943h16.8403c-0.019,3.0551 0.2597,5.99271 2.333,8.48531c2.0417,2.45509 5.371,-1.1729 3.3388,-3.6162c-1.02641,-1.2343 -1.15231,-3.057 -1.08141,-4.8691h6.3926c0.3622,2.2352 0.8941,4.4054 1.7379,6.54691c0.5053,1.2838 2.2259,1.55479 3.2302,0.9172c1.2137,-0.7689 1.3521,-2.2164 0.8469,-3.4985c-0.4991,-1.2669 -0.8328,-2.6069 -1.0783,-3.9656h4.6722c0.817,3.6298 2.68871,6.88271 3.02551,10.6558c0.2897,3.2529 5.0153,3.28371 4.7225,0c-0.3352,-3.7576 -2.1944,-7.0822 -3.016,-10.6558h4.4014c0.233,2.7858 1.12241,5.2016 3.4568,6.8963c1.0703,0.7775 2.6099,0.2284 3.2302,-0.9172c0.6751,-1.2564 0.2138,-2.7227 -0.8535,-3.4966l0,0l0.0001,0zm-77.5382,-21.9441c-4.0598,0 -4.0598,-6.8195 0,-6.8195s4.0612,6.8195 0,6.8195zm-2.3345,-36.7749c-0.0095,-0.8115 -0.019,-1.6249 -0.0409,-2.4398c-0.0393,-1.5106 -0.4376,-3.5598 -0.3259,-5.3399c1.8308,0.9445 3.608,2.0339 5.4387,2.9631c0.3133,0.1603 0.647,0.266 0.9712,0.3939c-2.2997,1.3025 -4.3068,2.7841 -6.0431,4.4227zm37.9372,43.6644c-0.4423,4.9613 -2.7059,8.7377 -5.4309,8.7377c-3.0429,0 -5.5096,-4.7073 -5.5096,-10.5142h11.0191c0,0.60699 -0.0267,1.20029 -0.0786,1.7765l0,0l0,0zm30.5118,-2.9119c-4.0598,0 -4.0598,-6.8196 0,-6.8196s4.0612,6.8196 0,6.8196zm3.6851,-44.6892c0.00311,1.3384 -0.13689,2.6664 -0.2565,3.9962c-0.1213,1.3504 -0.2803,2.6971 -0.45029,4.0424c-2.0181,-2.7705 -4.55251,-5.2478 -7.7118,-7.3431c2.3849,-0.4092 4.7492,-0.965 7.101,-1.7885c2.0291,-0.7075 1.3143,-0.4228 1.3176,1.093l0,0z"/>
   </g>
  </g>
 </g>
</svg>