<?xml version="1.0"?>
<svg version="1.1" xmlns="http://www.w3.org/2000/svg" xmlns:xlink="http://www.w3.org/1999/xlink" width="200" height="200">
    <desc iVinci="yes" version="4.6" gridStep="20" showGrid="no" snapToGrid="no" codePlatform="0"/>
    <g id="Layer1" name="Layer 2" opacity="1">
        <g id="Shape1">
            <desc shapeID="1" type="0" basicInfo-basicType="0" basicInfo-roundedRectRadius="12" basicInfo-polygonSides="6" basicInfo-starPoints="5" bounding="rect(-98.35,-98.3,196.7,196.6)" text="" font-familyName="" font-pixelSize="20" font-bold="0" font-underline="0" font-alignment="1" strokeStyle="0" markerStart="0" markerEnd="0" shadowEnabled="0" shadowOffsetX="0" shadowOffsetY="2" shadowBlur="4" shadowOpacity="160" blurEnabled="0" blurRadius="4" transform="matrix(1,0,0,1,99.35,101.3)" pers-center="0,0" pers-size="0,0" pers-start="0,0" pers-end="0,0" locked="0" mesh="" flag=""/>
            <path id="shapePath1" d="M162.1,199.6 L36.5,199.6 C17,199.6 1.00001,183.6 1.00001,164.1 L1.00001,38.5 C1.00001,18.9 17,3.00001 36.5,3.00001 L162.2,3.00001 C181.7,3.00001 197.7,19 197.7,38.5 L197.7,164.2 C197.6,183.6 181.7,199.6 162.1,199.6 Z" style="stroke:none;fill-rule:nonzero;fill:#e8fcfb;fill-opacity:1;"/>
        </g>
    </g>
    <g id="Layer2" name="Layer 1" opacity="1">
        <g id="Shape2">
            <desc shapeID="2" type="0" basicInfo-basicType="0" basicInfo-roundedRectRadius="12" basicInfo-polygonSides="6" basicInfo-starPoints="5" bounding="rect(-31.4759,-20.1519,62.9518,40.3038)" text="" font-familyName="" font-pixelSize="20" font-bold="0" font-underline="0" font-alignment="1" strokeStyle="0" markerStart="0" markerEnd="0" shadowEnabled="0" shadowOffsetX="0" shadowOffsetY="2" shadowBlur="4" shadowOpacity="160" blurEnabled="0" blurRadius="4" transform="matrix(0.800018,-0.809312,0.809312,0.800018,93.7377,160.931)" pers-center="0,0" pers-size="0,0" pers-start="0,0" pers-end="0,0" locked="0" mesh="" flag=""/>
            <path id="shapePath2" d="M52.2472,170.283 C52.2472,170.283 52.3282,170.363 52.3282,170.363 C75.6522,182.218 105.5,181.16 119.103,167.885 C132.706,154.609 124.864,134.216 101.539,122.36 C101.539,122.36 101.459,122.28 101.459,122.28 L52.2472,170.283 Z" style="stroke:none;fill-rule:nonzero;fill:#ff7bac;fill-opacity:1;"/>
        </g>
        <g id="Shape3">
            <desc shapeID="3" type="0" basicInfo-basicType="0" basicInfo-roundedRectRadius="12" basicInfo-polygonSides="6" basicInfo-starPoints="5" bounding="rect(-27.703,-12.1626,55.406,24.3251)" text="" font-familyName="" font-pixelSize="20" font-bold="0" font-underline="0" font-alignment="1" strokeStyle="0" markerStart="0" markerEnd="0" shadowEnabled="0" shadowOffsetX="0" shadowOffsetY="2" shadowBlur="4" shadowOpacity="160" blurEnabled="0" blurRadius="4" transform="matrix(0.800018,-0.809312,0.809312,0.800018,154.408,99.4107)" pers-center="0,0" pers-size="0,0" pers-start="0,0" pers-end="0,0" locked="0" mesh="" flag=""/>
            <path id="shapePath3" d="M130.253,119.861 C130.253,119.861 130.334,119.941 130.253,119.861 C142.03,124.782 159.528,117.278 169.344,102.978 C179.159,88.6783 177.701,73.1562 166.004,68.1542 C166.004,68.1542 166.004,68.1542 165.923,68.0742 L130.253,119.861 Z" style="stroke:none;fill-rule:nonzero;fill:#ff7bac;fill-opacity:1;"/>
        </g>
        <g id="Shape4">
            <desc shapeID="4" type="0" basicInfo-basicType="0" basicInfo-roundedRectRadius="12" basicInfo-polygonSides="6" basicInfo-starPoints="5" bounding="rect(-66.0306,-21.4204,132.061,42.8408)" text="" font-familyName="" font-pixelSize="20" font-bold="0" font-underline="0" font-alignment="1" strokeStyle="0" markerStart="0" markerEnd="0" shadowEnabled="0" shadowOffsetX="0" shadowOffsetY="2" shadowBlur="4" shadowOpacity="160" blurEnabled="0" blurRadius="4" transform="matrix(0.800018,-0.809312,0.809312,0.800018,61.92,74.1862)" pers-center="0,0" pers-size="0,0" pers-start="0,0" pers-end="0,0" locked="0" mesh="" flag=""/>
            <path id="shapePath4" d="M23.5167,141.882 C23.5167,141.882 23.4357,141.802 23.4357,141.802 C10.8254,117.976 24.663,75.6495 54.353,47.2333 C84.0429,18.8172 118.381,14.9977 130.992,38.8242 C130.992,38.8242 131.072,38.9042 131.072,38.9042 L23.5167,141.882 Z" style="stroke:none;fill-rule:nonzero;fill:#ff7bac;fill-opacity:1;"/>
        </g>
        <g id="Shape5">
            <desc shapeID="5" type="0" basicInfo-basicType="0" basicInfo-roundedRectRadius="12" basicInfo-polygonSides="6" basicInfo-starPoints="5" bounding="rect(-91.5507,-38.3215,183.101,76.6429)" text="" font-familyName="" font-pixelSize="20" font-bold="0" font-underline="0" font-alignment="1" strokeStyle="0" markerStart="0" markerEnd="0" shadowEnabled="0" shadowOffsetX="0" shadowOffsetY="2" shadowBlur="4" shadowOpacity="160" blurEnabled="0" blurRadius="4" transform="matrix(0.800018,-0.809312,0.809312,0.800018,86.3076,111.384)" pers-center="0,0" pers-size="0,0" pers-start="0,0" pers-end="0,0" locked="0" mesh="" flag=""/>
            <path id="shapePath5" d="M160.682,38.4113 C177.599,55.4536 158.072,101.917 117.024,142.308 C75.896,182.619 28.8495,201.399 11.933,184.356 C-4.9835,167.314 14.5436,120.851 55.591,80.4599 C96.6393,40.2297 143.766,21.3691 160.682,38.4113 Z" style="stroke:#ff7bac;stroke-opacity:1;stroke-width:3;stroke-linejoin:miter;stroke-miterlimit:2;stroke-linecap:butt;fill-rule:nonzero;fill:#fdf57a;fill-opacity:1;"/>
        </g>
        <g id="Shape6">
            <desc shapeID="6" type="0" basicInfo-basicType="0" basicInfo-roundedRectRadius="12" basicInfo-polygonSides="6" basicInfo-starPoints="5" bounding="rect(-12.6625,-33.9,25.325,67.8)" text="" font-familyName="" font-pixelSize="20" font-bold="0" font-underline="0" font-alignment="1" strokeStyle="0" markerStart="0" markerEnd="0" shadowEnabled="0" shadowOffsetX="0" shadowOffsetY="2" shadowBlur="4" shadowOpacity="160" blurEnabled="0" blurRadius="4" transform="matrix(0.800018,-0.809312,0.809312,0.800018,162.253,40.3838)" pers-center="0,0" pers-size="0,0" pers-start="0,0" pers-end="0,0" locked="0" mesh="" flag=""/>
            <path id="shapePath6" d="M164.623,37.9862 C153.05,26.546 146.94,13.6258 150.127,8.13543 L149.966,8.13637 C139.728,4.89627 134.128,10.5615 137.486,20.7616 L142.401,35.8615 C145.759,46.0616 156.766,56.9419 167.004,60.182 L182.16,64.9226 C192.398,68.1627 197.998,62.4975 194.64,52.2973 L194.639,52.1364 C189.106,55.4676 176.277,49.5065 164.623,37.9862 Z" style="stroke:none;fill-rule:nonzero;fill:#ff7bac;fill-opacity:1;"/>
        </g>
        <g id="Shape7">
            <desc shapeID="7" type="0" basicInfo-basicType="0" basicInfo-roundedRectRadius="12" basicInfo-polygonSides="6" basicInfo-starPoints="5" bounding="rect(-4.9,-6.39999,9.8,12.8)" text="" font-familyName="" font-pixelSize="20" font-bold="0" font-underline="0" font-alignment="1" strokeStyle="0" markerStart="0" markerEnd="0" shadowEnabled="0" shadowOffsetX="0" shadowOffsetY="2" shadowBlur="4" shadowOpacity="160" blurEnabled="0" blurRadius="4" transform="matrix(0.800018,-0.809312,0.809312,0.800018,37.0899,137.378)" pers-center="0,0" pers-size="0,0" pers-start="0,0" pers-end="0,0" locked="0" mesh="" flag=""/>
            <path id="shapePath7" d="M41.01,133.412 C43.8706,136.24 44.4345,140.308 42.2695,142.498 C40.1045,144.688 36.0305,144.171 33.1698,141.344 C30.3092,138.516 29.7453,134.448 31.9103,132.258 C34.0753,130.068 38.1494,130.585 41.01,133.412 Z" style="stroke:none;fill-rule:evenodd;fill:#b2a1a1;fill-opacity:1;"/>
        </g>
        <g id="Shape8">
            <desc shapeID="8" type="0" basicInfo-basicType="0" basicInfo-roundedRectRadius="12" basicInfo-polygonSides="6" basicInfo-starPoints="5" bounding="rect(-4.9,-6.4,9.8,12.8)" text="" font-familyName="" font-pixelSize="20" font-bold="0" font-underline="0" font-alignment="1" strokeStyle="0" markerStart="0" markerEnd="0" shadowEnabled="0" shadowOffsetX="0" shadowOffsetY="2" shadowBlur="4" shadowOpacity="160" blurEnabled="0" blurRadius="4" transform="matrix(0.800018,-0.809312,0.809312,0.800018,21.3091,163.702)" pers-center="0,0" pers-size="0,0" pers-start="0,0" pers-end="0,0" locked="0" mesh="" flag=""/>
            <path id="shapePath8" d="M25.2291,159.737 C28.0898,162.564 28.6537,166.632 26.4887,168.822 C24.3237,171.012 20.2496,170.496 17.389,167.668 C14.5284,164.84 13.9645,160.772 16.1295,158.582 C18.2945,156.392 22.3685,156.909 25.2291,159.737 Z" style="stroke:none;fill-rule:evenodd;fill:#000000;fill-opacity:1;"/>
        </g>
        <g id="Shape9">
            <desc shapeID="9" type="0" basicInfo-basicType="0" basicInfo-roundedRectRadius="12" basicInfo-polygonSides="6" basicInfo-starPoints="5" bounding="rect(-4.9,-6.4,9.8,12.8)" text="" font-familyName="" font-pixelSize="20" font-bold="0" font-underline="0" font-alignment="1" strokeStyle="0" markerStart="0" markerEnd="0" shadowEnabled="0" shadowOffsetX="0" shadowOffsetY="2" shadowBlur="4" shadowOpacity="160" blurEnabled="0" blurRadius="4" transform="matrix(0.800018,-0.809312,0.809312,0.800018,56.8103,124.389)" pers-center="0,0" pers-size="0,0" pers-start="0,0" pers-end="0,0" locked="0" mesh="" flag=""/>
            <path id="shapePath9" d="M60.7304,120.423 C63.591,123.251 64.1549,127.319 61.9899,129.509 C59.8249,131.699 55.7509,131.182 52.8902,128.355 C50.0296,125.527 49.4657,121.459 51.6307,119.269 C53.7957,117.079 57.8698,117.596 60.7304,120.423 Z" style="stroke:none;fill-rule:evenodd;fill:#b2a1a1;fill-opacity:1;"/>
        </g>
        <g id="Shape10">
            <desc shapeID="10" type="0" basicInfo-basicType="0" basicInfo-roundedRectRadius="12" basicInfo-polygonSides="6" basicInfo-starPoints="5" bounding="rect(-4.9,-6.4,9.8,12.8)" text="" font-familyName="" font-pixelSize="20" font-bold="0" font-underline="0" font-alignment="1" strokeStyle="0" markerStart="0" markerEnd="0" shadowEnabled="0" shadowOffsetX="0" shadowOffsetY="2" shadowBlur="4" shadowOpacity="160" blurEnabled="0" blurRadius="4" transform="matrix(0.800018,-0.809312,0.809312,0.800018,52.1078,160.064)" pers-center="0,0" pers-size="0,0" pers-start="0,0" pers-end="0,0" locked="0" mesh="" flag=""/>
            <path id="shapePath10" d="M56.0278,156.098 C58.8885,158.926 59.4524,162.994 57.2874,165.184 C55.1224,167.374 51.0483,166.857 48.1877,164.03 C45.3271,161.202 44.7631,157.134 46.9282,154.944 C49.0932,152.754 53.1672,153.271 56.0278,156.098 Z" style="stroke:none;fill-rule:evenodd;fill:#b2a1a1;fill-opacity:1;"/>
        </g>
        <g id="Shape11">
            <desc shapeID="11" type="0" basicInfo-basicType="0" basicInfo-roundedRectRadius="12" basicInfo-polygonSides="6" basicInfo-starPoints="5" bounding="rect(-4.9,-6.4,9.8,12.8)" text="" font-familyName="" font-pixelSize="20" font-bold="0" font-underline="0" font-alignment="1" strokeStyle="0" markerStart="0" markerEnd="0" shadowEnabled="0" shadowOffsetX="0" shadowOffsetY="2" shadowBlur="4" shadowOpacity="160" blurEnabled="0" blurRadius="4" transform="matrix(0.800018,-0.809312,0.809312,0.800018,77.4478,144.79)" pers-center="0,0" pers-size="0,0" pers-start="0,0" pers-end="0,0" locked="0" mesh="" flag=""/>
            <path id="shapePath11" d="M81.3679,140.824 C84.2285,143.652 84.7924,147.719 82.6274,149.91 C80.4624,152.1 76.3883,151.583 73.5277,148.755 C70.6671,145.927 70.1032,141.86 72.2682,139.669 C74.4332,137.479 78.5073,137.996 81.3679,140.824 Z" style="stroke:none;fill-rule:evenodd;fill:#b2a1a1;fill-opacity:1;"/>
        </g>
        <g id="Shape12">
            <desc shapeID="12" type="0" basicInfo-basicType="0" basicInfo-roundedRectRadius="12" basicInfo-polygonSides="6" basicInfo-starPoints="5" bounding="rect(-4.9,-6.4,9.8,12.8)" text="" font-familyName="" font-pixelSize="20" font-bold="0" font-underline="0" font-alignment="1" strokeStyle="0" markerStart="0" markerEnd="0" shadowEnabled="0" shadowOffsetX="0" shadowOffsetY="2" shadowBlur="4" shadowOpacity="160" blurEnabled="0" blurRadius="4" transform="matrix(0.800018,-0.809312,0.809312,0.800018,76.861,112.847)" pers-center="0,0" pers-size="0,0" pers-start="0,0" pers-end="0,0" locked="0" mesh="" flag=""/>
            <path id="shapePath12" d="M80.781,108.881 C83.6417,111.709 84.2056,115.777 82.0406,117.967 C79.8756,120.157 75.8015,119.64 72.9409,116.812 C70.0803,113.985 69.5163,109.917 71.6814,107.727 C73.8464,105.536 77.9204,106.053 80.781,108.881 Z" style="stroke:none;fill-rule:evenodd;fill:#b2a1a1;fill-opacity:1;"/>
        </g>
        <g id="Shape13">
            <desc shapeID="13" type="0" basicInfo-basicType="0" basicInfo-roundedRectRadius="12" basicInfo-polygonSides="6" basicInfo-starPoints="5" bounding="rect(-4.9,-6.4,9.8,12.8)" text="" font-familyName="" font-pixelSize="20" font-bold="0" font-underline="0" font-alignment="1" strokeStyle="0" markerStart="0" markerEnd="0" shadowEnabled="0" shadowOffsetX="0" shadowOffsetY="2" shadowBlur="4" shadowOpacity="160" blurEnabled="0" blurRadius="4" transform="matrix(0.800018,-0.809312,0.809312,0.800018,58.7324,94.9262)" pers-center="0,0" pers-size="0,0" pers-start="0,0" pers-end="0,0" locked="0" mesh="" flag=""/>
            <path id="shapePath13" d="M62.6525,90.9606 C65.5131,93.7884 66.077,97.8562 63.912,100.046 C61.747,102.237 57.6729,101.72 54.8123,98.8919 C51.9517,96.0641 51.3878,91.9963 53.5528,89.8061 C55.7178,87.616 59.7918,88.1329 62.6525,90.9606 Z" style="stroke:none;fill-rule:evenodd;fill:#b2a1a1;fill-opacity:1;"/>
        </g>
        <g id="Shape14">
            <desc shapeID="14" type="0" basicInfo-basicType="0" basicInfo-roundedRectRadius="12" basicInfo-polygonSides="6" basicInfo-starPoints="5" bounding="rect(-4.89999,-6.4,9.8,12.8)" text="" font-familyName="" font-pixelSize="20" font-bold="0" font-underline="0" font-alignment="1" strokeStyle="0" markerStart="0" markerEnd="0" shadowEnabled="0" shadowOffsetX="0" shadowOffsetY="2" shadowBlur="4" shadowOpacity="160" blurEnabled="0" blurRadius="4" transform="matrix(0.800018,-0.809312,0.809312,0.800018,100.808,121.158)" pers-center="0,0" pers-size="0,0" pers-start="0,0" pers-end="0,0" locked="0" mesh="" flag=""/>
            <path id="shapePath14" d="M104.728,117.192 C107.589,120.02 108.153,124.088 105.988,126.278 C103.823,128.468 99.7488,127.951 96.8882,125.123 C94.0276,122.295 93.4637,118.228 95.6287,116.037 C97.7937,113.847 101.868,114.364 104.728,117.192 Z" style="stroke:none;fill-rule:evenodd;fill:#b2a1a1;fill-opacity:1;"/>
        </g>
        <g id="Shape15">
            <desc shapeID="15" type="0" basicInfo-basicType="0" basicInfo-roundedRectRadius="12" basicInfo-polygonSides="6" basicInfo-starPoints="5" bounding="rect(-4.9,-6.4,9.8,12.8)" text="" font-familyName="" font-pixelSize="20" font-bold="0" font-underline="0" font-alignment="1" strokeStyle="0" markerStart="0" markerEnd="0" shadowEnabled="0" shadowOffsetX="0" shadowOffsetY="2" shadowBlur="4" shadowOpacity="160" blurEnabled="0" blurRadius="4" transform="matrix(0.800018,-0.809312,0.809312,0.800018,129.828,101.999)" pers-center="0,0" pers-size="0,0" pers-start="0,0" pers-end="0,0" locked="0" mesh="" flag=""/>
            <path id="shapePath15" d="M133.748,98.0336 C136.608,100.861 137.172,104.929 135.007,107.119 C132.842,109.31 128.768,108.793 125.907,105.965 C123.047,103.137 122.483,99.0693 124.648,96.8792 C126.813,94.689 130.887,95.2059 133.748,98.0336 Z" style="stroke:none;fill-rule:evenodd;fill:#b2a1a1;fill-opacity:1;"/>
        </g>
        <g id="Shape16">
            <desc shapeID="16" type="0" basicInfo-basicType="0" basicInfo-roundedRectRadius="12" basicInfo-polygonSides="6" basicInfo-starPoints="5" bounding="rect(-4.89999,-6.4,9.8,12.8)" text="" font-familyName="" font-pixelSize="20" font-bold="0" font-underline="0" font-alignment="1" strokeStyle="0" markerStart="0" markerEnd="0" shadowEnabled="0" shadowOffsetX="0" shadowOffsetY="2" shadowBlur="4" shadowOpacity="160" blurEnabled="0" blurRadius="4" transform="matrix(0.800018,-0.809312,0.809312,0.800018,83.2249,86.1746)" pers-center="0,0" pers-size="0,0" pers-start="0,0" pers-end="0,0" locked="0" mesh="" flag=""/>
            <path id="shapePath16" d="M87.145,82.209 C90.0056,85.0367 90.5695,89.1045 88.4045,91.2947 C86.2395,93.4848 82.1654,92.968 79.3048,90.1402 C76.4442,87.3124 75.8803,83.2446 78.0453,81.0545 C80.2103,78.8643 84.2844,79.3812 87.145,82.209 Z" style="stroke:none;fill-rule:evenodd;fill:#b2a1a1;fill-opacity:1;"/>
        </g>
        <g id="Shape17">
            <desc shapeID="17" type="0" basicInfo-basicType="0" basicInfo-roundedRectRadius="12" basicInfo-polygonSides="6" basicInfo-starPoints="5" bounding="rect(-4.89999,-6.4,9.8,12.8)" text="" font-familyName="" font-pixelSize="20" font-bold="0" font-underline="0" font-alignment="1" strokeStyle="0" markerStart="0" markerEnd="0" shadowEnabled="0" shadowOffsetX="0" shadowOffsetY="2" shadowBlur="4" shadowOpacity="160" blurEnabled="0" blurRadius="4" transform="matrix(0.800018,-0.809312,0.809312,0.800018,126.858,75.542)" pers-center="0,0" pers-size="0,0" pers-start="0,0" pers-end="0,0" locked="0" mesh="" flag=""/>
            <path id="shapePath17" d="M130.778,71.5764 C133.639,74.4042 134.203,78.472 132.038,80.6621 C129.873,82.8523 125.799,82.3354 122.938,79.5077 C120.078,76.6799 119.514,72.6121 121.679,70.4219 C123.844,68.2318 127.918,68.7486 130.778,71.5764 Z" style="stroke:none;fill-rule:evenodd;fill:#b2a1a1;fill-opacity:1;"/>
        </g>
        <g id="Shape18">
            <desc shapeID="18" type="0" basicInfo-basicType="0" basicInfo-roundedRectRadius="12" basicInfo-polygonSides="6" basicInfo-starPoints="5" bounding="rect(-4.9,-6.39999,9.8,12.8)" text="" font-familyName="" font-pixelSize="20" font-bold="0" font-underline="0" font-alignment="1" strokeStyle="0" markerStart="0" markerEnd="0" shadowEnabled="0" shadowOffsetX="0" shadowOffsetY="2" shadowBlur="4" shadowOpacity="160" blurEnabled="0" blurRadius="4" transform="matrix(0.800018,-0.809312,0.809312,0.800018,102.36,97.2493)" pers-center="0,0" pers-size="0,0" pers-start="0,0" pers-end="0,0" locked="0" mesh="" flag=""/>
            <path id="shapePath18" d="M106.28,93.2836 C109.141,96.1114 109.705,100.179 107.54,102.369 C105.375,104.56 101.301,104.043 98.44,101.215 C95.5794,98.3871 95.0155,94.3193 97.1805,92.1292 C99.3455,89.939 103.42,90.4559 106.28,93.2836 Z" style="stroke:none;fill-rule:evenodd;fill:#b2a1a1;fill-opacity:1;"/>
        </g>
        <g id="Shape19">
            <desc shapeID="19" type="0" basicInfo-basicType="0" basicInfo-roundedRectRadius="12" basicInfo-polygonSides="6" basicInfo-starPoints="5" bounding="rect(-4.90001,-6.4,9.8,12.8)" text="" font-familyName="" font-pixelSize="20" font-bold="0" font-underline="0" font-alignment="1" strokeStyle="0" markerStart="0" markerEnd="0" shadowEnabled="0" shadowOffsetX="0" shadowOffsetY="2" shadowBlur="4" shadowOpacity="160" blurEnabled="0" blurRadius="4" transform="matrix(0.800018,-0.809312,0.809312,0.800018,130.551,60.1511)" pers-center="0,0" pers-size="0,0" pers-start="0,0" pers-end="0,0" locked="0" mesh="" flag=""/>
            <path id="shapePath19" d="M134.472,56.1855 C137.332,59.0132 137.896,63.0811 135.731,65.2712 C133.566,67.4614 129.492,66.9445 126.631,64.1167 C123.771,61.289 123.207,57.2211 125.372,55.031 C127.537,52.8408 131.611,53.3577 134.472,56.1855 Z" style="stroke:none;fill-rule:evenodd;fill:#b2a1a1;fill-opacity:1;"/>
        </g>
        <g id="Shape20">
            <desc shapeID="20" type="0" basicInfo-basicType="0" basicInfo-roundedRectRadius="12" basicInfo-polygonSides="6" basicInfo-starPoints="5" bounding="rect(-4.9,-6.4,9.8,12.8)" text="" font-familyName="" font-pixelSize="20" font-bold="0" font-underline="0" font-alignment="1" strokeStyle="0" markerStart="0" markerEnd="0" shadowEnabled="0" shadowOffsetX="0" shadowOffsetY="2" shadowBlur="4" shadowOpacity="160" blurEnabled="0" blurRadius="4" transform="matrix(0.800018,-0.809312,0.809312,0.800018,104.885,74.6229)" pers-center="0,0" pers-size="0,0" pers-start="0,0" pers-end="0,0" locked="0" mesh="" flag=""/>
            <path id="shapePath20" d="M108.805,70.6572 C111.666,73.485 112.229,77.5528 110.064,79.743 C107.899,81.9331 103.825,81.4163 100.965,78.5885 C98.1042,75.7607 97.5403,71.6929 99.7053,69.5027 C101.87,67.3126 105.944,67.8295 108.805,70.6572 Z" style="stroke:none;fill-rule:evenodd;fill:#b2a1a1;fill-opacity:1;"/>
        </g>
    </g>
</svg>
